<svg width="24" height="24" viewBox="0 0 24 24" fill="none" xmlns="http://www.w3.org/2000/svg">
<path d="M22.994 7H21.494C20.997 7 20.604 7.369 20.526 7.843L18.316 4.308C17.796 3.476 16.902 2.952 15.922 2.902C14.623 2.834 13.316 2.8 12 2.8C10.685 2.8 9.377 2.834 8.078 2.901C7.098 2.952 6.204 3.476 5.684 4.307L3.47 7.85C3.394 7.372 2.999 7 2.5 7H1C0.448 7 0 7.448 0 8V9C0 9.552 0.448 10 1 10H1.488C1.171 10.743 1 11.543 1 12.357L0.994 22C0.994 22.552 1.442 23 1.994 23H3.994C4.546 23 4.994 22.552 4.994 22V19.664C7.302 19.878 9.636 20 12 20C14.36 20 16.69 19.878 18.994 19.665V22C18.994 22.552 19.442 23 19.994 23H21.994C22.546 23 22.994 22.552 22.994 22L23 12.357C23 11.543 22.829 10.743 22.512 10H22.995C23.547 10 23.995 9.552 23.995 9V8C23.994 7.448 23.547 7 22.994 7ZM6.952 5.101C7.212 4.685 7.662 4.421 8.155 4.395C9.43 4.329 10.724 4.296 12 4.296C13.276 4.296 14.57 4.329 15.845 4.395C16.338 4.421 16.788 4.684 17.048 5.101L19.234 8.597C16.847 8.864 14.434 9 12 9C9.566 9 7.153 8.864 4.766 8.597L6.952 5.101ZM16.765 11.634L14.955 14.53C14.773 14.822 14.452 15 14.107 15H9.893C9.548 15 9.228 14.822 9.045 14.53L7.235 11.634C7.647 11.66 8.054 11.7 8.468 11.72L9.746 13.765C9.838 13.911 9.998 14 10.17 14H13.83C14.002 14 14.163 13.911 14.254 13.765L15.532 11.72C15.946 11.701 16.353 11.66 16.765 11.634ZM22 11.578C22 11.765 21.947 11.949 21.848 12.108L21.797 12.189C21.584 12.53 21.276 12.802 20.906 12.96C20.096 13.307 19.219 13.526 18.304 13.61L15.855 17.53C15.673 17.822 15.352 18 15.007 18H8.993C8.648 18 8.327 17.822 8.145 17.53L5.696 13.61C4.78 13.526 3.904 13.307 3.094 12.96C2.725 12.802 2.416 12.529 2.203 12.189L2.152 12.108C2.053 11.949 2 11.765 2 11.578V11.118C2 10.818 2.315 10.628 2.583 10.763C3.385 11.166 4.259 11.447 5.18 11.583C5.476 11.627 5.742 11.786 5.899 12.04L8.845 16.765C8.937 16.911 9.098 17 9.27 17H14.73C14.902 17 15.063 16.911 15.154 16.765L18.1 12.04C18.258 11.786 18.524 11.627 18.819 11.583C19.74 11.447 20.614 11.166 21.416 10.763C21.684 10.628 22 10.818 22 11.118V11.578Z" fill="black"/>
</svg>
