<svg width="24" height="24" viewBox="0 0 24 24" fill="none" xmlns="http://www.w3.org/2000/svg">
<path d="M20 1H4C3.45 1 3 1.45 3 2V22C3 22.55 3.45 23 4 23H20C20.55 23 21 22.55 21 22V2C21 1.45 20.55 1 20 1ZM7.25 20C6.56 20 6 19.44 6 18.75C6 18.06 6.56 17.5 7.25 17.5C7.94 17.5 8.5 18.06 8.5 18.75C8.5 19.44 7.94 20 7.25 20ZM7.25 16C6.56 16 6 15.44 6 14.75C6 14.06 6.56 13.5 7.25 13.5C7.94 13.5 8.5 14.06 8.5 14.75C8.5 15.44 7.94 16 7.25 16ZM7.25 12C6.56 12 6 11.44 6 10.75C6 10.06 6.56 9.5 7.25 9.5C7.94 9.5 8.5 10.06 8.5 10.75C8.5 11.44 7.94 12 7.25 12ZM12 20C11.31 20 10.75 19.44 10.75 18.75C10.75 18.06 11.31 17.5 12 17.5C12.69 17.5 13.25 18.06 13.25 18.75C13.25 19.44 12.69 20 12 20ZM12 16C11.31 16 10.75 15.44 10.75 14.75C10.75 14.06 11.31 13.5 12 13.5C12.69 13.5 13.25 14.06 13.25 14.75C13.25 15.44 12.69 16 12 16ZM12 12C11.31 12 10.75 11.44 10.75 10.75C10.75 10.06 11.31 9.5 12 9.5C12.69 9.5 13.25 10.06 13.25 10.75C13.25 11.44 12.69 12 12 12ZM18 18.75C18 19.44 17.44 20 16.75 20C16.06 20 15.5 19.44 15.5 18.75V14.75C15.5 14.06 16.06 13.5 16.75 13.5C17.44 13.5 18 14.06 18 14.75V18.75ZM16.75 12C16.06 12 15.5 11.44 15.5 10.75C15.5 10.06 16.06 9.5 16.75 9.5C17.44 9.5 18 10.06 18 10.75C18 11.44 17.44 12 16.75 12ZM18 6.5C18 6.775 17.775 7 17.5 7H6.5C6.225 7 6 6.775 6 6.5V4.5C6 4.225 6.225 4 6.5 4H17.5C17.775 4 18 4.225 18 4.5V6.5Z" fill="black"/>
</svg>
