<svg width="24" height="25" viewBox="0 0 24 25" fill="none" xmlns="http://www.w3.org/2000/svg">
<path fill-rule="evenodd" clip-rule="evenodd" d="M2 10.1196C2 5.81955 4.60001 1.81955 8.70001 0.519553C15.6 -1.68045 22 3.41955 21.9 9.91955C21.9 12.3196 21.1 14.4196 19.6 16.3196C19.6 16.3196 17.2 19.2196 12.6 23.4196C12.3 23.7196 11.7 23.7196 11.3 23.4196C6.69999 19.2196 4.29999 16.3196 4.29999 16.3196C2.79999 14.4196 2 12.5196 2 10.1196ZM7.47003 7.88073C7.43629 7.95271 7.36465 8 7.28516 8H6.2C6.08954 8 6 7.91046 6 7.8V7.7C6 7.58954 6.08954 7.5 6.2 7.5H6.41577C6.49393 7.5 6.56469 7.45427 6.59881 7.38395C7.57077 5.38093 9.62411 4 12 4C14.3759 4 16.4292 5.38093 17.4012 7.38395C17.4353 7.45427 17.506 7.5 17.5842 7.5H17.8C17.9105 7.5 18 7.58954 18 7.7V7.8C18 7.91046 17.9105 8 17.8 8H16.7148C16.6353 8 16.5637 7.95271 16.53 7.88073C15.7323 6.17877 14.0038 5 12 5C9.99615 5 8.26763 6.17877 7.47003 7.88073ZM16.53 12.1193C16.5637 12.0473 16.6353 12 16.7148 12H17.8C17.9105 12 18 12.0895 18 12.2V12.3C18 12.4105 17.9105 12.5 17.8 12.5H17.5842C17.506 12.5 17.4353 12.5457 17.4012 12.6161C16.4292 14.6191 14.3759 16 12 16C9.62411 16 7.57077 14.6191 6.59881 12.6161C6.56469 12.5457 6.49393 12.5 6.41577 12.5H6.2C6.08954 12.5 6 12.4105 6 12.3V12.2C6 12.0895 6.08954 12 6.2 12H7.28516C7.36465 12 7.43629 12.0473 7.47003 12.1193C8.26763 13.8212 9.99615 15 12 15C14.0038 15 15.7323 13.8212 16.53 12.1193ZM19 9.47217C19 9.21032 18.798 8.99268 18.5368 8.97467C16.3804 8.82596 14.2004 8.75 12 8.75C9.79965 8.75 7.61968 8.82597 5.46322 8.97467C5.202 8.99269 5 9.21033 5 9.47217V10.5278C5 10.7897 5.202 11.0073 5.46322 11.0253C7.61964 11.174 9.79957 11.25 12 11.25C14.2003 11.25 16.3803 11.174 18.5368 11.0253C18.798 11.0073 19 10.7897 19 10.5278V9.47217Z" fill="black"/>
</svg>
