<?xml version="1.0" standalone="no"?>
<!DOCTYPE svg PUBLIC "-//W3C//DTD SVG 1.1//EN" "http://www.w3.org/Graphics/SVG/1.1/DTD/svg11.dtd" >
<svg xmlns="http://www.w3.org/2000/svg">
<metadata>Generated by IcoMoon</metadata>
<defs>
<font id="nissan-modernized-icons-font" horiz-adv-x="1024">
<font-face units-per-em="1024" ascent="960" descent="-64" />
<missing-glyph horiz-adv-x="1024" />
<glyph unicode="&#x20;" horiz-adv-x="512" d="" />
<glyph unicode="&#xe600;" glyph-name="accessories" d="M810.411 328.235c0 6.485-0.768 12.885-1.365 19.328-14.037-2.773-28.459-4.352-43.093-5.205-0.768-1.835-1.365-3.712-2.432-5.419l-1.749-2.816c-7.424-11.861-18.219-21.376-31.104-26.88-25.387-10.88-52.736-17.877-81.152-21.419l-92.459-147.755c-3.84-6.272-10.667-10.069-18.048-10.069h-224.981c-7.339 0-14.208 3.797-18.091 10.027l-92.416 147.755c-28.416 3.541-55.765 10.581-81.195 21.419-12.885 5.504-23.637 15.019-31.104 26.88l-1.749 2.816c-3.456 5.547-5.333 11.947-5.333 18.475v16.043c0 10.453 11.008 17.067 20.352 12.373 27.989-14.037 58.453-23.808 90.624-28.544 10.325-1.536 19.627-7.083 25.173-15.915l105.557-168.661h201.344l105.557 168.619c5.205 8.32 13.824 13.397 23.381 15.275-57.301 16.939-107.776 49.579-146.816 92.843-27.563-1.024-55.125-2.219-82.816-2.219-80.469 0-160.299 4.395-239.317 12.757l73.131 116.779c7.040 11.221 19.2 18.347 32.597 19.072 44.288 2.304 89.259 3.456 133.589 3.456 2.219 0 4.437-0.171 6.656-0.171-4.224 20.736-6.485 42.197-6.485 64.171-0.043 0-0.085 0-0.128 0-45.909 0-91.563-1.195-136.875-3.541-34.219-1.749-65.408-20.011-83.584-48.981l-80.299-128.299c-4.992 18.048-20.821 31.573-40.448 31.573h-42.667c-23.552 0-42.667-19.115-42.667-42.667s19.115-42.667 42.667-42.667h25.216c-16.213-30.293-25.259-63.957-25.259-98.432v-238.379c0 0 0 0 0.043 0v-89.856c0-23.552 19.115-42.667 42.667-42.667h42.667c23.552 0 42.667 19.115 42.667 42.667v74.624c84.224-8.192 169.472-12.757 255.872-12.757 86.485 0 171.819 4.608 256.128 12.8v-74.667c0-23.552 19.115-42.667 42.667-42.667h42.667c23.552 0 42.667 19.115 42.667 42.667v256h-0.256v72.235zM335.275 349.654l31.915-50.987h118.699l31.915 50.987c17.237 0.597 34.475 1.195 51.669 2.133l-53.675-85.76c-3.925-6.229-10.752-10.027-18.091-10.027h-142.336c-7.339 0-14.165 3.797-18.091 10.027l-53.675 85.76c17.152-0.939 34.389-1.536 51.669-2.133zM746.667 938.667c-153.173 0-277.333-124.16-277.333-277.333s124.16-277.333 277.333-277.333 277.333 124.16 277.333 277.333-124.16 277.333-277.333 277.333zM896 640h-128v-128h-42.667v128h-128v42.667h128v128h42.667v-128h128v-42.667z" />
<glyph unicode="&#xe601;" glyph-name="anchor-link-mobile" d="M511.573 132.694l-445.227 445.141c-33.323 33.323-33.323 87.339 0 120.704 33.323 33.323 87.339 33.323 120.704 0l324.565-324.523 324.48 324.48c33.323 33.323 87.339 33.323 120.661 0s33.323-87.339 0-120.661l-445.184-445.141z" />
<glyph unicode="&#xe602;" glyph-name="automatic" d="M533.333 938.667c-270.976 0-490.667-219.691-490.667-490.667s219.691-490.667 490.667-490.667c270.976 0 490.667 219.691 490.667 490.667s-219.691 490.667-490.667 490.667zM512 213.334h-128v55.467h128v-55.467zM512 420.267h-128v55.467h128v-55.467zM640 213.334h-55.467v371.2c0 23.552-19.115 42.667-42.667 42.667h-157.867v55.467h170.667c47.147 0 85.333-38.187 85.333-85.333v-384z" />
<glyph unicode="&#xe603;" glyph-name="available" d="M896 896h-768c-46.933 0-85.333-38.4-85.333-85.333v-768c0-46.933 38.4-85.333 85.333-85.333h768c46.933 0 85.333 38.4 85.333 85.333v768c0 46.933-38.4 85.333-85.333 85.333zM411.904 217.472l-199.040 199.083 39.211 39.211 159.829-159.829 348.032 347.989 39.211-39.211-387.243-387.243z" />
<glyph unicode="&#xe604;" glyph-name="battery" d="M938.667 768h-21.333c-11.776 0-21.333 9.557-21.333 21.333v21.333c0 23.552-19.115 42.667-42.667 42.667h-85.333c-23.552 0-42.667-19.115-42.667-42.667v-21.333c0-11.776-9.557-21.333-21.333-21.333h-384c-11.776 0-21.333 9.557-21.333 21.333v21.333c0 23.552-19.115 42.667-42.667 42.667h-85.333c-23.552 0-42.667-19.115-42.667-42.667v-21.333c0-11.776-9.557-21.333-21.333-21.333h-21.333c-23.467 0-42.667-19.2-42.667-42.667v-725.333c0-23.467 19.2-42.667 42.667-42.667h853.333c23.467 0 42.667 19.2 42.667 42.667v725.333c0 23.467-19.2 42.667-42.667 42.667zM616.917 358.486l-176.085-209.835c-10.965-13.056-31.915-1.451-26.667 14.763l65.067 200.235c3.285 10.069-4.181 20.352-14.763 20.352h-41.685c-13.184 0-20.352 15.403-11.904 25.515l176.085 209.835c10.965 13.056 31.915 1.451 26.667-14.763l-65.067-200.235c-3.243-10.069 4.224-20.352 14.763-20.352h41.685c13.184 0 20.395-15.403 11.904-25.515z" />
<glyph unicode="&#xe605;" glyph-name="battery-leasing" d="M512 597.334c-117.632 0-213.333-95.701-213.333-213.333s95.701-213.333 213.333-213.333 213.333 95.701 213.333 213.333-95.701 213.333-213.333 213.333zM600.619 456.406l-72.235-86.144c-0.384-0.469-0.981-0.64-1.408-1.067-0.469-0.469-0.725-1.109-1.237-1.536-0.981-0.853-2.176-1.237-3.243-1.877-0.811-0.469-1.536-1.024-2.389-1.365-2.603-1.067-5.291-1.749-8.021-1.749 0 0 0 0 0 0s0 0 0 0c-2.731 0-5.461 0.683-8.021 1.749-0.811 0.341-1.536 0.853-2.304 1.323-1.109 0.64-2.304 1.067-3.328 1.92-0.555 0.469-0.811 1.109-1.323 1.621-0.384 0.427-0.939 0.555-1.323 1.024l-96.341 114.773c-7.595 9.003-6.4 22.485 2.603 30.080s22.443 6.4 30.080-2.603l79.872-95.36 55.893 66.645c7.595 9.003 21.035 10.155 30.080 2.645 9.003-7.595 10.197-21.035 2.645-30.080zM938.667 768h-21.333c-11.776 0-21.333 9.557-21.333 21.333v21.333c0 23.552-19.115 42.667-42.667 42.667h-85.333c-23.552 0-42.667-19.115-42.667-42.667v-21.333c0-11.776-9.557-21.333-21.333-21.333h-384c-11.776 0-21.333 9.557-21.333 21.333v21.333c0 23.552-19.115 42.667-42.667 42.667h-85.333c-23.552 0-42.667-19.115-42.667-42.667v-21.333c0-11.776-9.557-21.333-21.333-21.333h-21.333c-23.467 0-42.667-19.2-42.667-42.667v-725.333c0-23.467 19.2-42.667 42.667-42.667h853.333c23.467 0 42.667 19.2 42.667 42.667v725.333c0 23.467-19.2 42.667-42.667 42.667zM512 128c-141.397 0-256 114.603-256 256s114.603 256 256 256 256-114.603 256-256-114.603-256-256-256z" />
<glyph unicode="&#xe606;" glyph-name="book-a-service" d="M405.333 742.4c-4.267-81.067-68.267-145.068-149.333-145.068s-145.067 64-149.333 140.8v46.935c0 72.533 59.733 140.8 128 149.333 59.733 8.533 115.201-17.067 145.068-64 8.533-8.533 21.33-17.068 34.13-17.068h55.469c25.6 0 42.667-17.067 42.667-42.667v-42.667h-106.667v-25.599zM622.933 200.534l-153.6 251.733c-4.267 8.533-29.867 46.933-42.667 63.998l170.667 204.802c12.8 17.067 42.667 21.332 59.733 4.266l51.2-42.667 4.267 4.265c12.8 17.067 42.667 21.335 59.733 4.268l38.4-34.133c17.067-12.8 21.333-42.668 4.267-59.734l-4.267-4.266 51.2-42.667c17.067-12.8 21.333-42.667 4.267-59.733l-243.2-290.133zM42.667 348.54c13.429 4.553 27.77 7.014 42.666 7.014 54.962 0 102.374-33.527 124.25-81.941 0.925-2.044 2.89-3.392 5.071-3.392h29.765c3.030 0 5.486 2.547 5.486 5.692v2.842c0 3.145-2.456 5.692-5.486 5.692h-5.919c-2.144 0-4.085 1.301-5.021 3.298-26.659 56.977-82.98 96.256-148.147 96.256-14.050 0-27.689-1.826-40.708-5.261 15.229 94.682 93.287 167.393 194.308 167.393 76.8 0 140.799-38.399 174.932-98.132 1.859-1.86 19.113-28.838 40.463-62.217 27.644-43.221 62.157-97.178 79.006-121.25l72.533-115.2c4.267-4.267 8.533-8.533 17.067-8.533s12.8 4.267 17.067 8.533l196.267 234.667 34.133-25.6c34.133-29.867 38.4-81.067 8.533-123.733l-192-226.133c-25.6-29.867-64-46.933-98.133-46.933-38.4 0-81.067 21.333-106.667 59.733l-85.331 140.8c-8.533 12.8-21.336 12.8-29.87 8.533-12.8-4.267-17.065-21.333-8.532-29.867l85.332-140.8c8.533-17.067 25.6-34.133 42.667-46.933h-443.733v95.39c13.607-3.776 27.91-5.79 42.666-5.79 65.167 0 121.487 39.279 148.147 96.256 0.936 1.997 2.877 3.298 5.021 3.298h5.919c3.030 0 5.486 2.547 5.486 5.692v2.842c0 3.145-2.456 5.692-5.486 5.692h-29.765c-2.18 0-4.145-1.348-5.071-3.392-21.877-48.414-69.288-81.941-124.25-81.941-14.896 0-29.237 2.462-42.666 7.014v100.011c14.19-0.239 28.412-0.358 42.665-0.358 60.354 0 120.147 2.159 179.296 6.387 7.165 0.516 12.706 6.707 12.706 14.153v30.029c0 7.45-5.541 13.636-12.706 14.153-59.148 4.228-118.94 6.387-179.293 6.387-14.254 0-28.477-0.119-42.668-0.358v100.011z" />
<glyph unicode="&#xe607;" glyph-name="carwings" d="M639.317 930.987l52.267-160.896c3.371-10.411-2.304-21.589-12.715-24.96-2.048-0.683-4.096-0.981-6.144-0.981-8.363 0-16.128 5.333-18.859 13.696l-57.6 177.323c-34.987 1.92-70.101 3.499-105.6 3.499s-70.613-1.579-105.643-3.541l-57.6-177.323c-2.731-8.363-10.496-13.696-18.816-13.696-2.005 0-4.096 0.341-6.144 0.981-10.411 3.413-16.085 14.592-12.715 25.003l52.267 160.896c-73.515-14.72-128.683-78.080-128.683-155.008v-708.267c0-61.44 46.72-113.237 107.904-118.656 55.808-4.949 112.341-7.509 169.429-7.509s113.621 2.56 169.429 7.509c61.184 5.461 107.904 57.216 107.904 118.656v708.267c0 76.928-55.168 140.288-128.683 155.008zM490.667 691.328c58.24 0 115.413-4.352 171.819-11.179l-74.837-168.149h-193.963l-74.837 168.149c56.405 6.827 113.579 11.179 171.819 11.179zM282.667 21.12v0 0 0zM277.333 68.694v534.229l64-143.744v-314.197l-64-76.288zM654.421 12.8c-54.144-4.821-109.227-7.253-163.755-7.253s-109.611 2.432-163.755 7.253c-1.707 0.171-3.157 1.067-4.821 1.408l59.691 71.125h217.728l59.691-71.125c-1.664-0.341-3.072-1.237-4.779-1.408zM698.667 21.12v0 0 0zM704 68.694l-64 76.288v314.197l64 143.744v-534.229zM2.688 416c0-102.229 34.603-196.139 92.245-271.531l75.733 75.733v391.595l-75.733 75.733c-57.643-75.392-92.245-169.301-92.245-271.531zM886.4 687.531l-75.733-75.733v-391.595l75.733-75.733c57.643 75.392 92.245 169.301 92.245 271.531 0.043 102.229-34.603 196.139-92.245 271.531z" />
<glyph unicode="&#xe608;" glyph-name="charging-cost" d="M661.333 938.667c-200.277 0-362.667-162.389-362.667-362.667 0-37.12 5.632-72.917 16-106.667h282.667c0.384 0 0.768-0.128 1.152-0.128l36.181 111.36c2.688 8.277-3.456 16.768-12.16 16.768h-34.389c-10.88 0-16.811 12.715-9.813 21.035l145.195 173.013c9.045 10.795 26.325 1.195 21.973-12.203l-53.632-165.12c-2.688-8.235 3.456-16.725 12.16-16.725h34.389c10.88 0 16.811-12.715 9.813-21.035l-102.485-122.112c22.272-15.403 36.949-41.088 36.949-70.187v-169.6c190.293 11.093 341.333 168.491 341.333 361.6 0 200.277-162.389 362.667-362.667 362.667zM0-0c0-23.467 19.2-42.667 42.667-42.667h554.667c23.467 0 42.667 19.2 42.667 42.667v213.333h-640v-213.333zM597.333 426.667h-554.667c-23.467 0-42.667-19.2-42.667-42.667v-85.333h640v85.333c0 23.467-19.2 42.667-42.667 42.667z" />
<glyph unicode="&#xe609;" glyph-name="close-cross" d="M150.229-20.437c-21.845 0-43.691 8.32-60.331 25.003-33.323 33.323-33.323 87.339 0 120.661l723.541 723.541c33.323 33.323 87.339 33.323 120.661 0s33.323-87.339 0-120.661l-723.541-723.584c-16.64-16.64-38.485-24.96-60.331-24.96zM873.771-20.437c-21.845 0-43.648 8.32-60.331 25.003l-723.541 723.541c-33.323 33.323-33.323 87.339 0 120.661 33.28 33.323 87.381 33.323 120.661 0l723.541-723.541c33.323-33.323 33.323-87.339 0-120.661-16.64-16.683-38.485-25.003-60.331-25.003z" />
<glyph unicode="&#xe60a;" glyph-name="coins" d="M512 255.275c272.457 0 493.714 100.571 493.714 224.585-0.293 16.037-3.931 31.817-10.697 46.354-47.378-101.723-245.522-177.883-483.017-177.883s-436.005 76.233-483.017 177.883c-6.93-14.482-10.587-30.299-10.697-46.354 0-124.069 221.019-224.585 493.714-224.585zM512 190.781c-237.714 0-436.041 76.471-483.054 178.871-6.949-14.647-10.587-30.647-10.661-46.866 0-124.562 221.019-225.518 493.714-225.518s493.714 101.157 493.714 225.518c-0.256 16.201-3.895 32.183-10.697 46.903-47.378-102.107-245.522-178.907-483.017-178.907zM512 25.881c-237.714 0-436.023 76.16-483.035 177.81-6.93-14.482-10.569-30.318-10.679-46.373 0-123.941 221.019-224.366 493.714-224.366s493.714 100.571 493.714 224.457c-0.329 16-3.986 31.762-10.715 46.281-47.378-101.65-245.285-177.81-482.999-177.81zM1005.641 669.264c0-138.688-221.027-251.118-493.678-251.118s-493.678 112.429-493.678 251.118c0 138.688 221.027 251.118 493.678 251.118s493.678-112.429 493.678-251.118z" />
<glyph unicode="&#xe60b;" glyph-name="compare" d="M426.667 896h-341.333c-23.467 0-42.667-19.2-42.667-42.667v-85.333h97.835c17.792 0 35.115-5.547 49.621-15.915l70.101-50.133c11.904-8.533 25.216-14.933 39.296-18.944l53.547-15.317c18.304-5.205 30.933-21.973 30.933-41.003v-29.355c0-23.552-19.115-42.667-42.667-42.667h-5.419c-8.107 38.699-42.453 67.84-83.499 67.84s-75.435-29.141-83.541-67.84h-126.208v-554.667c0-23.467 19.2-42.667 42.667-42.667h341.333c23.467 0 42.667 19.2 42.667 42.667v853.333c0 23.467-19.2 42.667-42.667 42.667zM252.416 579.84c23.509 0 42.667-19.157 42.667-42.667s-19.157-42.667-42.667-42.667c-23.509 0-42.667 19.157-42.667 42.667s19.115 42.667 42.667 42.667zM384 85.334h-256v42.667h256v-42.667zM384 213.334h-256v42.667h256v-42.667zM384 341.334h-256v42.667h256v-42.667zM938.667 896h-341.333c-23.467 0-42.667-19.2-42.667-42.667v-85.333h97.835c17.792 0 35.157-5.547 49.621-15.915l70.101-50.133c11.904-8.533 25.216-14.933 39.296-18.944l53.547-15.317c18.304-5.205 30.933-21.973 30.933-41.003v-29.355c0-23.552-19.115-42.667-42.667-42.667h-5.419c-8.107 38.699-42.453 67.84-83.499 67.84s-75.435-29.141-83.541-67.84h-126.208v-554.667c0-23.467 19.2-42.667 42.667-42.667h341.333c23.467 0 42.667 19.2 42.667 42.667v853.333c0 23.467-19.2 42.667-42.667 42.667zM764.416 579.84c23.509 0 42.667-19.157 42.667-42.667s-19.157-42.667-42.667-42.667c-23.509 0-42.667 19.157-42.667 42.667s19.115 42.667 42.667 42.667zM896 85.334h-256v42.667h256v-42.667zM896 213.334h-256v42.667h256v-42.667zM896 341.334h-256v42.667h256v-42.667z" />
<glyph unicode="&#xe60c;" glyph-name="configure" d="M512 589.782c-76.587 0-138.667-62.080-138.667-138.667s62.080-138.667 138.667-138.667c76.587 0 138.667 62.080 138.667 138.667s-62.080 138.667-138.667 138.667zM981.205 640h-64c-21.205 0-37.973-15.701-41.301-35.968l-94.293 150.827c-22.187 35.499-60.331 57.856-102.144 59.989-55.424 2.901-111.232 4.352-167.339 4.352-56.149 0-111.957-1.451-167.339-4.309-41.813-2.176-79.957-24.533-102.144-60.032l-94.464-151.125c-3.243 20.395-20.096 36.267-41.387 36.267h-64c-23.552 0-42.667-19.115-42.667-42.667v-42.667c0-23.552 19.115-42.667 42.667-42.667h20.821c-13.568-31.701-20.821-65.835-20.821-100.565l-0.256-411.435c0-23.552 19.115-42.667 42.667-42.667h85.333c23.552 0 42.667 19.115 42.667 42.667v99.669c98.475-9.131 198.059-14.336 298.923-14.336 100.693 0 200.107 5.205 298.411 14.293v-99.627c0-23.552 19.115-42.667 42.667-42.667h85.333c23.552 0 42.667 19.115 42.667 42.667l0.256 411.435c0 34.731-7.296 68.864-20.821 100.565h20.608c23.552 0 42.667 19.115 42.667 42.667v42.667c-0.043 23.552-19.157 42.667-42.709 42.667zM732.544 451.115c0-13.653-1.664-26.837-4.011-39.808l39.467-33.707-22.997-55.509-51.499 4.053c-15.275-22.101-34.389-41.259-56.491-56.533l4.053-51.499-55.509-22.997-33.707 39.467c-12.928-2.347-26.197-4.011-39.808-4.011-13.653 0-26.837 1.664-39.808 4.011l-33.707-39.467-55.509 22.997 4.053 51.499c-22.101 15.275-41.259 34.432-56.533 56.533l-51.499-4.053-23.040 55.509 39.467 33.707c-2.347 12.971-4.011 26.155-4.011 39.808s1.664 26.837 4.011 39.808l-39.467 33.707 22.997 55.509 51.499-4.053c15.275 22.101 34.432 41.259 56.533 56.491l-4.053 51.541 55.509 22.997 33.707-39.467c12.971 2.347 26.197 4.011 39.808 4.011s26.837-1.664 39.808-4.011l33.707 39.467 55.509-22.997-4.053-51.499c22.101-15.232 41.259-34.389 56.491-56.491l51.499 4.053 23.040-55.552-39.467-33.707c2.347-12.971 4.011-26.197 4.011-39.808z" />
<glyph unicode="&#xe60d;" glyph-name="contact-email" d="M436.139 498.859c-17.621-17.195-26.155-39.467-26.155-68.181 0-31.915 8.789-55.979 26.795-73.643 18.091-17.707 42.24-26.283 73.771-26.283 20.821 0 37.461 3.328 49.451 9.941 10.88 5.973 19.541 12.16 25.856 18.432v139.776c-20.224 16.939-46.464 25.557-78.080 25.557-30.507 0-53.973-8.363-71.637-25.6zM512 896c-259.2 0-469.333-210.133-469.333-469.333s210.133-469.333 469.333-469.333c259.2 0 469.333 210.133 469.333 469.333s-210.133 469.333-469.333 469.333zM806.272 353.579c-11.307-30.165-27.733-53.76-48.811-70.229-21.376-16.683-46.123-25.131-73.472-25.131-17.195 0-32.299 3.541-44.8 10.581-12.373 6.997-20.779 13.483-25.728 19.84-2.859 3.627-6.443 8.619-10.667 14.891-28.501-19.627-59.904-29.568-93.525-29.568-29.781 0-57.131 6.101-81.237 18.176-24.448 12.245-44.075 30.208-58.283 53.461-14.165 23.253-21.333 51.413-21.333 83.712 0 29.995 6.827 56.832 20.224 79.787 13.44 23.083 32.427 41.173 56.405 53.888 23.765 12.587 51.371 18.987 82.133 18.987 32.853 0 62.379-8.533 87.936-25.429l6.699 20.651h45.056v-217.515c0-12.885 3.499-23.083 10.667-31.189 6.784-7.68 15.701-11.392 27.179-11.392 13.696 0 25.941 5.205 37.419 15.915 12.075 11.264 21.803 27.477 28.928 48.213 7.296 21.333 11.008 46.464 11.008 74.709 0 50.304-11.648 92.587-34.645 125.653-23.083 33.195-53.333 58.027-89.984 73.771-37.248 15.957-77.867 24.021-120.704 24.021-51.2 0-96.853-10.496-135.637-31.147-38.485-20.523-68.651-49.579-89.6-86.315-21.035-36.864-31.701-79.659-31.701-127.147 0-51.627 11.477-98.475 34.133-139.179 22.571-40.576 54.869-72.832 95.957-95.872 41.216-23.125 89.643-34.859 143.957-34.859 17.92 0 38.955 1.92 62.464 5.717 23.723 3.797 47.317 9.301 70.229 16.341l13.824 4.267v-62.805l-7.765-2.219c-48.555-13.867-94.549-20.864-136.747-20.864-67.968 0-128.299 14.464-179.285 42.965-51.157 28.672-91.008 68.651-118.485 118.912-27.392 50.048-41.259 106.667-41.259 168.277 0 60.757 13.44 114.816 40.021 160.64 26.581 45.995 64.811 81.835 113.579 106.624 48.427 24.533 105.045 36.992 168.32 36.992 55.381 0 106.581-10.325 152.149-30.635 46.037-20.523 83.285-52.309 110.763-94.379 27.435-42.112 41.301-94.592 41.301-155.989 0.043-40.277-5.589-75.648-16.683-105.131z" />
<glyph unicode="&#xe60e;" glyph-name="doors" d="M768 563.030l137.131-69.845c10.496-5.333 23.339-1.195 28.672 9.301l9.685 18.987c5.333 10.496 1.195 23.339-9.301 28.715l-166.187 84.651v141.141c0 76.885-55.168 140.288-128.683 155.008l52.267-160.896c3.371-10.411-2.304-21.589-12.715-24.96-2.048-0.683-4.096-0.981-6.144-0.981-8.363 0-16.128 5.333-18.859 13.696l-57.6 177.323c-34.987 1.92-70.101 3.499-105.6 3.499s-70.613-1.579-105.643-3.541l-57.6-177.323c-2.731-8.363-10.496-13.696-18.816-13.696-2.005 0-4.096 0.341-6.144 0.981-10.411 3.413-16.085 14.592-12.715 25.003l52.267 160.896c-73.515-14.72-128.683-78.080-128.683-155.008v-141.141l-166.187-84.651c-10.496-5.333-14.677-18.219-9.301-28.715l9.685-18.987c5.333-10.496 18.176-14.677 28.672-9.301l137.131 69.845v-224.213l-166.187-84.651c-10.496-5.333-14.677-18.219-9.301-28.715l9.685-18.987c5.333-10.496 18.176-14.677 28.672-9.301l137.131 69.845v-199.296c0-61.44 46.72-113.237 107.904-118.656 55.808-4.949 112.299-7.509 169.429-7.509 57.088 0 113.621 2.56 169.429 7.509 61.184 5.461 107.904 57.216 107.904 118.656v199.296l137.131-69.845c10.496-5.333 23.339-1.195 28.672 9.301l9.685 18.987c5.333 10.496 1.195 23.339-9.301 28.715l-166.187 84.651v224.213zM490.667 691.328c58.24 0 115.413-4.352 171.819-11.179l-74.837-168.149h-193.963l-74.837 168.149c56.405 6.827 113.579 11.179 171.819 11.179zM282.667 21.12v0 0 0zM277.333 68.694v534.229l64-143.744v-314.197l-64-76.288zM654.421 12.8c-54.144-4.821-109.227-7.253-163.755-7.253s-109.611 2.432-163.755 7.253c-1.707 0.171-3.157 1.067-4.821 1.408l59.691 71.125h217.728l59.691-71.125c-1.664-0.341-3.072-1.237-4.779-1.408zM698.667 21.12v0 0 0zM704 68.694l-64 76.288v314.197l64 143.744v-534.229z" />
<glyph unicode="&#xe60f;" glyph-name="double-slider" d="M684.672 150.016c-16.384 0-32.768 6.229-45.269 18.731-25.003 25.003-25.003 65.493 0 90.496l167.424 167.424-166.997 166.997c-25.003 24.96-25.003 65.493 0 90.496s65.493 25.003 90.496 0l257.493-257.493-257.92-257.92c-12.501-12.501-28.843-18.731-45.227-18.731zM336.853 152.832c-16.384 0-32.768 6.229-45.269 18.731l-255.061 255.104 259.029 259.115c25.003 25.003 65.536 24.96 90.539 0 25.003-25.003 25.003-65.536 0-90.539l-168.576-168.576 164.565-164.565c25.003-25.003 25.003-65.493 0-90.496-12.459-12.501-28.843-18.773-45.227-18.773z" />
<glyph unicode="&#xe610;" glyph-name="down-arrow" d="M511.573 132.694l-445.227 445.141c-33.323 33.323-33.323 87.339 0 120.704 33.323 33.323 87.339 33.323 120.704 0l324.565-324.523 324.48 324.48c33.323 33.323 87.339 33.323 120.661 0s33.323-87.339 0-120.661l-445.184-445.141z" />
<glyph unicode="&#xe611;" glyph-name="download-brochure" d="M674.688 174.72l107.307-39.168c13.952-5.077 28.672 5.205 28.672 20.053v740.395h-725.333v-938.667h469.333l65.024 191.061c7.68 22.656 32.555 34.517 54.997 26.325zM469.333 221.824l-128 204.843h85.333v213.333h85.333v-213.333h85.333l-128-204.843zM896 896h-42.667v-760.363c0-16.043-9.003-30.72-23.296-38.016l-275.371-140.288h341.333c23.552 0 42.667 19.115 42.667 42.667v853.333c0 23.552-19.115 42.667-42.667 42.667z" />
<glyph unicode="&#xe612;" glyph-name="editpencil2" d="M71.253-85.333l254.080 123.904-176.128 147.797-77.952-271.701zM932.224 851.328l-88.064 73.899c-24.32 20.395-60.587 17.237-80.981-7.083l-66.645-79.445 176.128-147.797 66.645 79.445c20.395 24.32 17.237 60.544-7.083 80.981zM176.597 219.094l176.128-147.797 492.501 586.923-176.128 147.797-492.501-586.923z" />
<glyph unicode="&#xe613;" glyph-name="efficiency-class" d="M85.333 640h264.491l204.843 128-204.843 128h-264.491c-23.552 0-42.667-19.115-42.667-42.667v-170.667c0-23.552 19.115-42.667 42.667-42.667zM85.333 298.667h520.491l204.843 128-204.843 128h-520.491c-23.552 0-42.667-19.115-42.667-42.667v-170.667c0-23.552 19.115-42.667 42.667-42.667zM776.491 213.334h-691.157c-23.552 0-42.667-19.115-42.667-42.667v-170.667c0-23.552 19.115-42.667 42.667-42.667h691.157l204.843 128-204.843 128z" />
<glyph unicode="&#xe614;" glyph-name="elipsis" d="M219.41 426.704c0-60.583-49.113-109.696-109.696-109.696s-109.696 49.113-109.696 109.696c0 60.583 49.113 109.696 109.696 109.696s109.696-49.113 109.696-109.696zM621.714 426.667c0-60.594-49.121-109.714-109.714-109.714s-109.714 49.121-109.714 109.714c0 60.594 49.121 109.714 109.714 109.714s109.714-49.121 109.714-109.714zM1024 426.667c0-60.594-49.121-109.714-109.714-109.714s-109.714 49.121-109.714 109.714c0 60.594 49.121 109.714 109.714 109.714s109.714-49.121 109.714-109.714z" />
<glyph unicode="&#xe615;" glyph-name="enginePower" d="M935.808 213.334c-37.845 0-73.771 16.725-98.091 45.739l-189.227 225.536c-15.147 18.048-12.8 44.971 5.248 60.117 18.091 15.147 44.971 12.8 60.117-5.291l189.227-225.493c8.107-9.685 20.096-15.275 32.725-15.275h88.192v384c0 23.552-19.115 42.667-42.667 42.667h-108.117c-12.587 0-24.576 5.589-32.683 15.232l-69.035 82.261c-16.213 19.328-40.149 30.507-65.365 30.507h-388.267c-25.216 0-49.152-11.179-65.365-30.464l-69.035-82.304c-8.107-9.643-20.096-15.232-32.683-15.232h-108.117c-23.552 0-42.667-19.115-42.667-42.667v-512c0-23.552 19.115-42.667 42.667-42.667h70.955c12.629 0 24.576-5.589 32.683-15.232l104.832-124.928c16.213-19.328 40.149-30.507 65.408-30.507h664.789c23.552 0 42.667 19.115 42.667 42.667v213.333h-88.192zM423.808 213.334c-37.931 0-73.643 16.683-98.048 45.696l-189.227 225.536c-15.189 18.048-12.8 44.971 5.248 60.117s44.971 12.8 60.117-5.291l189.227-225.536c8.107-9.643 20.011-15.189 32.683-15.189h41.173l67.755-80.725c1.451-1.707 3.285-2.944 4.821-4.608h-113.749zM679.808 213.334c-37.931 0-73.643 16.683-98.048 45.696l-189.227 225.536c-15.189 18.048-12.8 44.971 5.248 60.117s44.971 12.8 60.117-5.291l189.227-225.536c8.107-9.643 20.011-15.189 32.683-15.189h41.173l67.755-80.725c1.451-1.707 3.285-2.944 4.821-4.608h-113.749z" />
<glyph unicode="&#xe616;" glyph-name="explore" d="M810.667 422.784c59.349 0 113.835-20.736 156.971-55.168l-201.6 452.821h-0.384c-20.053 44.459-64.555 75.563-116.523 75.563-67.712 0-123.136-52.565-127.701-119.125-0.341-4.992-4.437-8.875-9.429-8.875v0c-4.992 0-9.088 3.883-9.429 8.875-4.565 66.56-59.989 119.125-127.701 119.125-51.968 0-96.469-31.104-116.523-75.563h-0.384l-201.6-452.821c43.093 34.432 97.621 55.168 156.971 55.168 78.635 0 148.821-36.309 195.029-92.885 4.053-4.949 42.155-50.389 70.997-84.736 17.024-20.309 48.256-20.309 65.323-0.043 28.203 33.536 64.981 77.312 68.437 81.664 46.165 58.368 117.504 96 197.547 96zM391.851 512c17.621 49.621 64.512 85.333 120.149 85.333s102.528-35.712 120.149-85.333h-240.299zM213.333 384c-117.803 0-213.333-95.531-213.333-213.333s95.531-213.333 213.333-213.333c117.803 0 213.333 95.531 213.333 213.333s-95.531 213.333-213.333 213.333zM213.333 42.667c-70.699 0-128 57.301-128 128s57.301 128 128 128c70.699 0 128-57.301 128-128s-57.301-128-128-128zM810.667 384c-117.803 0-213.333-95.531-213.333-213.333s95.531-213.333 213.333-213.333c117.803 0 213.333 95.531 213.333 213.333s-95.531 213.333-213.333 213.333zM810.667 42.667c-70.699 0-128 57.301-128 128s57.301 128 128 128c70.699 0 128-57.301 128-128s-57.301-128-128-128z" />
<glyph unicode="&#xe617;" glyph-name="external-link" d="M640 768h153.003l-220.672-220.672 60.331-60.331 220.672 220.672v-153.003c0-23.552 19.115-42.667 42.667-42.667v0c23.552 0 42.667 19.115 42.667 42.667v298.667h-298.667c-23.552 0-42.667-19.115-42.667-42.667v0c0-23.552 19.115-42.667 42.667-42.667zM853.333 426.667v-320c0-11.776-9.557-21.333-21.333-21.333h-640c-11.776 0-21.333 9.557-21.333 21.333v640c0 11.776 9.557 21.333 21.333 21.333h320v85.333h-341.333c-47.104 0-85.333-38.187-85.333-85.333v-682.667c0-47.147 38.187-85.333 85.333-85.333h682.667c47.147 0 85.333 38.187 85.333 85.333v341.333h-85.333z" />
<glyph unicode="&#xe618;" glyph-name="social-facebook" d="M594.901-38.954v416.597h139.136l20.821 162.475h-159.915v103.68c0 46.976 12.971 79.019 80.043 79.019l85.547 0.043v145.28c-14.805 1.963-65.664 6.4-124.629 6.4-123.264 0-207.701-75.691-207.701-214.656v-119.723h-139.392v-162.475h139.435v-416.597h166.656z" />
<glyph unicode="&#xe619;" glyph-name="feedback-star" d="M962.475 597.334h-302.336l-107.947 302.165c-13.483 37.76-66.859 37.76-80.341 0l-107.989-302.165h-302.336c-40.448 0-58.197-50.987-26.496-76.117l237.227-187.947-84.693-298.709c-10.795-38.059 31.488-69.035 64.512-47.275l259.925 171.221 259.925-171.179c33.024-21.76 75.307 9.216 64.512 47.275l-84.693 298.709 237.227 187.947c31.701 25.088 13.952 76.075-26.496 76.075z" />
<glyph unicode="&#xe61a;" glyph-name="fuel-type" d="M938.667 588.886c-0.853 29.013-9.045 52.096-27.435 75.648l-191.659 228.437-49.024-41.131 54.784-65.365v-167.808c0-58.923 47.744-106.667 106.667-106.667h42.667v-309.333c0-23.509-19.157-42.667-42.667-42.667s-42.667 19.157-42.667 42.667v117.333c0 58.923-47.744 106.667-106.667 106.667h-42.667c-0.085 119.552-6.741 239.616-19.627 355.755-7.125 64.725-62.037 113.579-127.147 113.579h-303.744c-65.152 0-120.021-48.853-127.189-113.579-12.885-116.139-19.541-236.203-19.627-355.755v-426.667c0-23.552 19.115-42.667 42.667-42.667h512c23.552 0 42.667 19.115 42.667 42.667v362.667h42.667c23.552 0 42.667-19.115 42.667-42.667v-111.019c0-55.765 40.021-106.752 95.531-112.384 63.787-6.528 117.803 43.563 117.803 106.069v386.219zM125.952 775.979c3.541 32.043 31.275 56.021 63.531 56.021h303.744c32.256 0 59.947-23.979 63.488-56.021 5.717-51.456 9.685-103.552 12.757-155.947 0.725-12.288-9.131-22.699-21.419-22.699h-413.44c-12.288 0-22.144 10.411-21.419 22.699 3.072 52.395 7.040 104.491 12.757 155.947zM874.667 576h-42.667c-23.509 0-42.667 19.157-42.667 42.667v91.563l72.107-85.931c9.216-11.819 12.8-21.931 13.227-36.395v-11.904z" />
<glyph unicode="&#xe61b;" glyph-name="full-screen-close" d="M938.667 793.003l-60.331 60.331-220.885-220.885v195.883h-85.12v-341.333h341.333v85.12h-195.883zM85.333 60.331l60.331-60.331 220.885 220.885v-195.883h85.12v341.333h-341.333v-85.12h195.883z" />
<glyph unicode="&#xe61c;" glyph-name="image-gallery-all" d="M73.148 499.815h365.705v365.705h-365.705v-365.705zM585.148 865.519v-365.705h365.705v365.705h-365.705zM73.148-12.185h365.705v365.705h-365.705v-365.705zM585.148-12.185h365.705v365.705h-365.705v-365.705z" />
<glyph unicode="&#xe61d;" glyph-name="image-gallery-one" d="M938.667 810.667h-853.333c-46.933 0-85.333-38.4-85.333-85.333v-682.667c0-46.933 38.4-85.333 85.333-85.333h853.333c46.933 0 85.333 38.4 85.333 85.333v682.667c0 46.933-38.4 85.333-85.333 85.333zM960 42.667c0-11.563-9.771-21.333-21.333-21.333h-853.333c-11.563 0-21.333 9.771-21.333 21.333v682.667c0 11.563 9.771 21.333 21.333 21.333h853.333c11.563 0 21.333-9.771 21.333-21.333v-682.667zM648.32 404.31l-51.584-61.483c-17.067-20.309-48.341-20.309-65.365 0l-159.019 189.483c-17.067 20.309-48.341 20.309-65.365 0l-178.987-213.333v-233.643h768v101.717l-182.315 217.259c-17.024 20.309-48.299 20.309-65.365 0zM810.667 682.667c-47.147 0-85.333-38.187-85.333-85.333s38.187-85.333 85.333-85.333c47.104 0 85.333 38.187 85.333 85.333s-38.187 85.333-85.333 85.333z" />
<glyph unicode="&#xe61e;" glyph-name="indicator" d="M0 938.667l502.857-502.857 502.857 502.857z" />
<glyph unicode="&#xe61f;" glyph-name="info" d="M510.635 895.787c-259.2 0-469.333-210.133-469.333-469.333s210.133-469.333 469.333-469.333 469.333 210.133 469.333 469.333-210.133 469.333-469.333 469.333zM510.635 42.454c-211.755 0-384 172.245-384 384s172.245 384 384 384 384-172.245 384-384-172.288-384-384-384zM467.968 490.454h85.333v-341.333h-85.333v341.333zM563.968 650.454c0-29.455-23.878-53.333-53.333-53.333s-53.333 23.878-53.333 53.333c0 29.455 23.878 53.333 53.333 53.333s53.333-23.878 53.333-53.333z" />
<glyph unicode="&#xe620;" glyph-name="information" d="M512 896c-259.2 0-469.333-210.133-469.333-469.333s210.133-469.333 469.333-469.333c259.2 0 469.333 210.133 469.333 469.333s-210.133 469.333-469.333 469.333zM554.667 170.667h-85.333v341.333h85.333v-341.333zM512 618.667c-29.44 0-53.333 23.893-53.333 53.333s23.893 53.333 53.333 53.333c29.44 0 53.333-23.893 53.333-53.333s-23.893-53.333-53.333-53.333z" />
<glyph unicode="&#xe621;" glyph-name="instagram" d="M512 809.984c124.843 0 139.648-0.469 188.928-2.731 45.568-2.091 70.357-9.685 86.827-16.085 21.803-8.491 37.419-18.603 53.76-34.987 16.341-16.341 26.496-31.957 34.987-53.76 6.4-16.469 14.037-41.216 16.085-86.827 2.261-49.323 2.731-64.085 2.731-188.928s-0.469-139.648-2.731-188.928c-2.091-45.568-9.685-70.357-16.085-86.827-8.491-21.803-18.603-37.419-34.987-53.76-16.341-16.341-31.957-26.496-53.76-34.987-16.469-6.4-41.216-14.037-86.827-16.085-49.28-2.261-64.085-2.731-188.928-2.731s-139.648 0.469-188.928 2.731c-45.568 2.091-70.357 9.685-86.827 16.085-21.845 8.491-37.419 18.603-53.76 34.987-16.341 16.341-26.496 31.957-34.987 53.76-6.4 16.469-14.037 41.216-16.085 86.827-2.261 49.28-2.731 64.085-2.731 188.928s0.469 139.648 2.731 188.928c2.091 45.568 9.685 70.357 16.085 86.827 8.491 21.845 18.603 37.419 34.987 53.76 16.341 16.341 31.957 26.496 53.76 34.987 16.469 6.4 41.216 14.037 86.827 16.085 49.28 2.261 64.085 2.731 188.928 2.731zM512 894.208c-126.976 0-142.891-0.555-192.768-2.816-49.749-2.261-83.755-10.155-113.493-21.717-30.763-11.947-56.832-27.947-82.816-53.931s-41.984-52.053-53.931-82.816c-11.563-29.739-19.456-63.744-21.717-113.493-2.304-49.877-2.816-65.792-2.816-192.768s0.555-142.891 2.816-192.768c2.261-49.749 10.155-83.755 21.717-113.493 11.947-30.763 27.947-56.832 53.931-82.816s52.053-41.984 82.816-53.931c29.739-11.563 63.744-19.456 113.493-21.717 49.877-2.261 65.792-2.816 192.768-2.816s142.891 0.555 192.768 2.816c49.749 2.261 83.755 10.155 113.493 21.717 30.763 11.947 56.832 27.947 82.816 53.931s41.984 52.053 53.931 82.816c11.563 29.739 19.456 63.744 21.717 113.493 2.261 49.877 2.816 65.792 2.816 192.768s-0.555 142.891-2.816 192.768c-2.261 49.749-10.155 83.755-21.717 113.493-11.947 30.763-27.947 56.832-53.931 82.816s-52.053 41.984-82.816 53.931c-29.739 11.563-63.744 19.456-113.493 21.717-49.877 2.304-65.792 2.816-192.768 2.816v0zM512 666.752c-132.608 0-240.085-107.477-240.085-240.085s107.477-240.085 240.085-240.085 240.085 107.477 240.085 240.085-107.477 240.085-240.085 240.085zM512 270.806c-86.059 0-155.861 69.76-155.861 155.861s69.803 155.861 155.861 155.861 155.861-69.803 155.861-155.861-69.803-155.861-155.861-155.861zM817.707 676.267c0-30.987-25.12-56.107-56.107-56.107s-56.107 25.12-56.107 56.107c0 30.987 25.12 56.107 56.107 56.107s56.107-25.12 56.107-56.107z" />
<glyph unicode="&#xe622;" glyph-name="left-arrow" d="M724.907-43.562c-21.845 0-43.648 8.32-60.331 25.003l-445.227 445.227 445.227 445.227c33.323 33.323 87.339 33.323 120.661 0s33.323-87.339 0-120.661l-324.523-324.565 324.523-324.565c33.323-33.323 33.323-87.339 0-120.661-16.64-16.683-38.485-25.003-60.331-25.003z" />
<glyph unicode="&#xe623;" glyph-name="loading-spinner" d="M597.333 810.667c0-47.128-38.205-85.333-85.333-85.333s-85.333 38.205-85.333 85.333c0 47.128 38.205 85.333 85.333 85.333s85.333-38.205 85.333-85.333zM597.333 42.667c0-47.128-38.205-85.333-85.333-85.333s-85.333 38.205-85.333 85.333c0 47.128 38.205 85.333 85.333 85.333s85.333-38.205 85.333-85.333zM868.864 698.198c0-47.128-38.205-85.333-85.333-85.333s-85.333 38.205-85.333 85.333c0 47.128 38.205 85.333 85.333 85.333s85.333-38.205 85.333-85.333zM325.803 155.136c0-47.128-38.205-85.333-85.333-85.333s-85.333 38.205-85.333 85.333c0 47.128 38.205 85.333 85.333 85.333s85.333-38.205 85.333-85.333zM981.333 426.667c0-47.128-38.205-85.333-85.333-85.333s-85.333 38.205-85.333 85.333c0 47.128 38.205 85.333 85.333 85.333s85.333-38.205 85.333-85.333zM213.333 426.667c0-47.128-38.205-85.333-85.333-85.333s-85.333 38.205-85.333 85.333c0 47.128 38.205 85.333 85.333 85.333s85.333-38.205 85.333-85.333zM868.864 155.136c0-47.128-38.205-85.333-85.333-85.333s-85.333 38.205-85.333 85.333c0 47.128 38.205 85.333 85.333 85.333s85.333-38.205 85.333-85.333zM325.803 698.198c0-47.128-38.205-85.333-85.333-85.333s-85.333 38.205-85.333 85.333c0 47.128 38.205 85.333 85.333 85.333s85.333-38.205 85.333-85.333z" />
<glyph unicode="&#xe624;" glyph-name="manual" d="M533.333 938.667c-270.976 0-490.667-219.691-490.667-490.667s219.691-490.667 490.667-490.667c270.976 0 490.667 219.691 490.667 490.667s-219.691 490.667-490.667 490.667zM341.333 256h-55.467v93.867h55.467v-93.867zM780.8 256h-55.467v157.867h-164.267v-157.867h-55.467v157.867h-134.4c-47.104 0-85.333 38.187-85.333 85.333v140.8h55.467v-128c0-23.552 19.115-42.667 42.667-42.667h121.6v170.667h55.467v-170.667h164.267v170.667h55.467v-384z" />
<glyph unicode="&#xe625;" glyph-name="map-view" d="M923.392 901.547l-225.408-86.528c-9.856-3.797-20.736-3.797-30.592 0l-295.467 113.408c-19.669 7.552-41.472 7.552-61.141 0l-240.725-92.373c-16.512-6.357-27.392-22.187-27.392-39.851v-761.941c0-29.952 29.995-50.56 57.941-39.851l225.408 86.528c9.856 3.797 20.736 3.797 30.592 0l295.467-113.408c19.669-7.552 41.472-7.552 61.141 0l240.725 92.416c16.512 6.357 27.392 22.187 27.392 39.851v761.941c0 29.909-29.995 50.56-57.941 39.808zM692.779 348.118c0 0-56.235-68.352-164.992-166.101-8.875-7.979-22.656-7.979-31.531 0-108.757 97.749-164.992 166.101-164.992 166.101-35.072 44.032-53.12 90.709-53.888 146.005-1.408 102.101 59.435 194.261 156.587 225.707 162.688 52.651 312.747-67.2 312.747-222.080-0.043-56.917-18.091-104.661-53.931-149.632zM640 497.707c0-70.692-57.308-128-128-128s-128 57.308-128 128c0 70.692 57.308 128 128 128s128-57.308 128-128z" />
<glyph unicode="&#xe626;" glyph-name="map-view-2" d="M923.392 901.547l-225.408-86.528c-9.856-3.797-20.736-3.797-30.592 0l-295.467 113.408c-19.669 7.552-41.472 7.552-61.141 0l-240.725-92.373c-16.512-6.357-27.392-22.187-27.392-39.851v-761.941c0-29.952 29.995-50.56 57.941-39.851l225.408 86.528c9.856 3.797 20.736 3.797 30.592 0l295.467-113.408c19.669-7.552 41.472-7.552 61.141 0l240.725 92.416c16.512 6.357 27.392 22.187 27.392 39.851v761.941c0 29.909-29.995 50.56-57.941 39.808zM692.779 348.118c0 0-56.235-68.352-164.992-166.101-8.875-7.979-22.656-7.979-31.531 0-108.757 97.749-164.992 166.101-164.992 166.101-35.072 44.032-53.12 90.709-53.888 146.005-1.408 102.101 59.435 194.261 156.587 225.707 162.688 52.651 312.747-67.2 312.747-222.080-0.043-56.917-18.091-104.661-53.931-149.632zM640 497.707c0-70.692-57.308-128-128-128s-128 57.308-128 128c0 70.692 57.308 128 128 128s128-57.308 128-128z" />
<glyph unicode="&#xe627;" glyph-name="minus" d="M896 341.334h-768c-47.104 0-85.333 38.229-85.333 85.333s38.229 85.333 85.333 85.333h768c47.104 0 85.333-38.229 85.333-85.333s-38.229-85.333-85.333-85.333z" />
<glyph unicode="&#xe628;" glyph-name="contact-phone" d="M512 896c-259.2 0-469.333-210.133-469.333-469.333s210.133-469.333 469.333-469.333c259.2 0 469.333 210.133 469.333 469.333s-210.133 469.333-469.333 469.333zM752.939 263.979c-19.243-24.149-39.765-47.616-61.611-70.272-13.781-14.293-36.352-16.427-52.651-5.163-51.797 35.883-101.717 75.179-148.736 117.163-17.365 15.531-34.304 31.573-50.987 47.915-16.341 16.683-32.427 33.621-47.915 50.987-41.984 47.019-81.323 96.939-117.163 148.736-11.307 16.299-9.131 38.869 5.163 52.651 22.656 21.845 46.123 42.368 70.272 61.611 8.107 6.443 19.84 5.717 27.264-1.493l79.616-77.227c7.424-7.211 8.533-18.944 2.304-27.221-8.363-11.136-16.981-22.101-25.899-32.939-12.587-15.36-13.056-37.333-0.171-52.437 23.211-27.264 65.579-73.216 128.981-127.957 15.275-13.184 37.632-13.312 53.291-0.512 10.624 8.704 21.419 17.152 32.341 25.344 8.277 6.229 20.011 5.12 27.221-2.304l77.227-79.616c7.168-7.424 7.893-19.157 1.451-27.264z" />
<glyph unicode="&#xe629;" glyph-name="mpg" d="M204.928 749.483c-8.064 9.6-22.955 10.496-31.659 1.408-80.725-84.224-130.603-198.315-130.603-324.224 0-115.584 42.069-221.141 111.403-302.891 8.448-9.984 24.149-9.515 32.597 0.512l83.755 99.84c6.4 7.637 6.357 18.432 0.512 26.453-36.181 49.365-57.6 110.293-57.6 176.085 0 75.051 27.861 143.659 73.728 196.139 6.997 8.064 7.552 19.755 0.683 27.947l-82.816 98.731zM850.731 750.934c-8.704 9.045-23.552 8.192-31.616-1.451l-82.859-98.731c-6.869-8.192-6.315-19.883 0.725-27.904 45.824-52.523 73.685-121.131 73.685-196.181 0-65.792-21.419-126.72-57.6-176.128-5.888-8.021-5.888-18.816 0.512-26.453l83.755-99.84c8.405-10.027 24.107-10.496 32.597-0.512 69.333 81.792 111.403 187.349 111.403 302.933 0 125.909-49.877 240-130.603 324.267zM772.48 816.512c-74.539 50.005-163.968 79.488-260.48 79.488s-185.941-29.483-260.48-79.488c-10.411-6.997-12.117-21.803-4.053-31.445l82.816-98.688c6.869-8.149 18.475-9.643 27.648-4.139 45.013 27.307 97.707 43.093 154.069 43.093s109.056-15.787 154.069-43.051c9.131-5.547 20.779-4.053 27.648 4.139l82.816 98.645c8.064 9.643 6.357 24.448-4.053 31.445zM671.445 532.523c-4.096 36.949-35.499 64.811-72.661 64.811h-173.568c-37.717 0-68.693-28.757-72.832-66.219-6.869-62.379-10.539-125.696-10.965-189.781h-0.085v-341.333c0-23.552 19.115-42.667 42.667-42.667h256c23.552 0 42.667 19.115 42.667 42.667v341.333h-0.085c-0.427 64.597-4.139 128.384-11.136 191.189zM492.203 88.32c-27.008 8.107-44.459 33.621-44.203 61.824 0.171 15.189 4.821 27.563 14.72 40.064 21.76 27.477 39.211 58.667 49.28 93.184 10.069-34.517 27.477-65.707 49.237-93.184 10.112-12.715 14.763-25.344 14.763-40.875 0-41.771-40.021-74.197-83.797-61.013zM594.944 384h-165.931c-12.117 0-21.931 10.112-21.461 22.229 1.579 39.979 4.224 79.829 8.533 119.040 0.555 4.608 4.523 8.064 9.131 8.064h173.568c4.608 0 8.576-3.456 9.088-8.064 4.352-39.211 6.997-79.061 8.576-119.040 0.469-12.117-9.344-22.229-21.504-22.229z" />
<glyph unicode="&#xe62a;" glyph-name="pan" d="M609.792 554.667h-140.459v234.667c0 35.328-28.672 64-64 64s-64-28.672-64-64v-481.749c0-21.419-28.075-29.483-39.424-11.307l-26.112 41.771c-24.96 39.979-77.611 52.139-117.589 27.136l-36.181-22.613 215.637-345.131c15.616-24.96 42.965-40.107 72.405-40.107h270.293c29.44 0 56.789 15.147 72.363 40.107l81.152 129.877c12.715 20.352 19.456 43.861 19.456 67.84v200.107c0 32.341-18.261 61.867-47.189 76.331l-139.136 69.547c-17.749 8.917-37.333 13.525-57.216 13.525z" />
<glyph unicode="&#xe62b;" glyph-name="gross-weight" d="M563.2 682.667c0-28.277-22.923-51.2-51.2-51.2s-51.2 22.923-51.2 51.2c0 28.277 22.923 51.2 51.2 51.2s51.2-22.923 51.2-51.2zM961.707 782.592c-7.168 64.683-62.123 113.408-127.147 113.408h-645.077c-65.067 0-120.021-48.725-127.189-113.408-12.885-116.181-19.541-234.24-19.627-353.835v-428.757c0-23.552 19.115-42.667 42.667-42.667h85.333c23.552 0 42.667 19.115 42.667 42.667v85.333h597.333v-85.333c0-23.552 19.115-42.667 42.667-42.667h85.333c23.552 0 42.667 19.115 42.667 42.667v428.757c-0.085 119.595-6.741 237.653-19.627 353.835zM207.445 283.947l90.496 278.571c5.461 16.811 20.693 28.715 38.357 29.611 37.717 2.005 75.605 3.285 113.621 4.096-34.219 24.619-53.547 68.736-40.491 116.395 9.643 35.157 38.571 63.744 73.856 72.96 71.296 18.603 135.381-34.645 135.381-102.912 0-35.669-17.707-67.072-44.587-86.443 38.016-0.811 75.904-2.091 113.579-4.096 17.664-0.939 32.896-12.8 38.357-29.611l90.496-278.571c4.48-13.824-5.803-27.947-20.267-27.947h-568.491c-14.507 0-24.789 14.123-20.309 27.947z" />
<glyph unicode="&#xe62c;" glyph-name="play" d="M841.472 405.334c20.309 11.733 20.309 30.933 0 42.667l-628.139 362.667c-20.309 11.733-36.949 2.133-36.949-21.333v-725.333c0-23.467 16.64-33.067 36.949-21.333l628.139 362.667z" />
<glyph unicode="&#xe62d;" glyph-name="player--control-fullscreen" d="M853.76 850.688h-252.885v-80.896h193.323l-158.72-162.517 59.563-59.691 158.72 159.147v-193.835h84.011v337.792zM171.136 0.427h252.885v80.896h-193.323l158.72 162.517-59.563 59.691-158.72-159.147v193.835h-84.011v-337.792zM86.869 767.958v-252.843h80.896v193.323l162.517-158.72 59.691 59.52-159.147 158.72h193.835v84.053h-337.792zM937.131 85.376v252.843h-80.896v-193.323l-162.517 158.72-59.691-59.52 159.147-158.72h-193.835v-84.053h337.792z" />
<glyph unicode="&#xe62e;" glyph-name="player-control-no-volume" d="M904.32 416l94.763 94.763c8.32 8.32 8.32 21.845 0 30.165l-30.165 30.165c-8.32 8.32-21.845 8.32-30.165 0l-94.763-94.763-94.763 94.763c-8.32 8.32-21.845 8.32-30.165 0l-30.165-30.165c-8.32-8.32-8.32-21.845 0-30.165l94.763-94.763-94.763-94.763c-8.32-8.32-8.32-21.845 0-30.165l30.165-30.165c8.32-8.32 21.845-8.32 30.165 0l94.763 94.763 94.763-94.763c8.32-8.32 21.845-8.32 30.165 0l30.165 30.165c8.32 8.32 8.32 21.845 0 30.165l-94.763 94.763zM551.637 867.456l-363.989-227.456h-157.781c-16.469 0-29.867-13.355-29.867-29.867v-366.933c0-16.512 13.397-29.867 29.867-29.867h157.781l363.989-227.456c19.883-12.416 45.696 1.877 45.696 25.344v830.891c0 23.467-25.813 37.76-45.696 25.344z" />
<glyph unicode="&#xe62f;" glyph-name="player-control-pause" d="M354.133 853.334h-153.6c-16.427 0-29.867-13.44-29.867-29.867v-793.6c0-16.427 13.44-29.867 29.867-29.867h153.6c16.427 0 29.867 13.44 29.867 29.867v793.6c0 16.427-13.44 29.867-29.867 29.867zM823.467 853.334h-153.6c-16.427 0-29.867-13.44-29.867-29.867v-793.6c0-16.427 13.44-29.867 29.867-29.867h153.6c16.427 0 29.867 13.44 29.867 29.867v793.6c0 16.427-13.44 29.867-29.867 29.867z" />
<glyph unicode="&#xe630;" glyph-name="player-control-play" d="M841.472 405.334c20.309 11.733 20.309 30.933 0 42.667l-628.139 362.667c-20.309 11.733-36.949 2.133-36.949-21.333v-725.333c0-23.467 16.64-33.067 36.949-21.333l628.139 362.667z" />
<glyph unicode="&#xe631;" glyph-name="print" d="M277.333 874.667h469.333v-235.264c21.376-1.408 42.667-3.115 64-4.864v261.461c0 23.552-19.115 42.667-42.667 42.667h-512c-23.552 0-42.667-19.115-42.667-42.667v-261.504c21.333 1.792 42.624 3.456 64 4.864v235.307zM512 592c-161.152 0-319.701-10.965-475.051-32.128-21.205-2.859-36.949-21.205-36.949-42.581v-474.624c0-23.552 19.115-42.667 42.667-42.667h115.2v226.133h708.267v-226.133h115.2c23.552 0 42.667 19.115 42.667 42.667v474.624c0 21.419-15.744 39.723-36.949 42.624-155.349 21.12-313.899 32.085-475.051 32.085zM192 341.334c-35.328 0-64 28.672-64 64s28.672 64 64 64 64-28.672 64-64-28.672-64-64-64zM213.333-85.333h597.333v256h-597.333v-256z" />
<glyph unicode="&#xe632;" glyph-name="quick-view" d="M512 627.2c-110.592 0-200.533-89.941-200.533-200.533s89.941-200.533 200.533-200.533 200.533 89.941 200.533 200.533-89.941 200.533-200.533 200.533zM469.333 416c-29.44 0-53.333 23.893-53.333 53.333s23.893 53.333 53.333 53.333c29.44 0 53.333-23.893 53.333-53.333s-23.893-53.333-53.333-53.333zM1011.712 471.552c-105.216 177.92-289.579 296.021-499.712 296.021s-394.539-118.101-499.712-296.021c-16.384-27.733-16.384-61.995 0-89.728 105.216-177.963 289.579-296.064 499.712-296.064s394.496 118.101 499.712 296.021c16.384 27.733 16.384 62.037 0 89.771zM512 170.667c-141.397 0-256 114.603-256 256s114.603 256 256 256c141.355 0 256-114.603 256-256s-114.603-256-256-256z" />
<glyph unicode="&#xe633;" glyph-name="reset" d="M576 853.334c-247.424 0-448-200.576-448-448 0-5.035 0.427-9.941 0.64-14.933l-54.4 54.4c-16.683 16.683-43.648 16.683-60.331 0-16.683-16.64-16.683-43.648 0-60.331l156.8-156.8 156.843 156.8c16.683 16.683 16.683 43.691 0 60.331-16.683 16.683-43.648 16.683-60.331 0l-53.205-53.163c-0.213 4.565-0.683 9.088-0.683 13.696 0 199.979 162.688 362.667 362.667 362.667s362.667-162.688 362.667-362.667-162.688-362.667-362.667-362.667c-117.376 0-221.397 56.405-287.659 143.189l-60.544-60.544c82.091-101.973 207.061-167.979 348.203-167.979 247.424 0 448 200.576 448 448s-200.576 448-448 448z" />
<glyph unicode="&#xe634;" glyph-name="right-arrow" d="M340.011-43.562c-21.845 0-43.648 8.32-60.331 25.003-33.323 33.323-33.323 87.339 0 120.661l324.565 324.565-324.565 324.565c-33.323 33.323-33.323 87.339 0 120.661 33.28 33.323 87.381 33.323 120.661 0l445.227-445.227-445.227-445.269c-16.64-16.64-38.485-24.96-60.331-24.96z" />
<glyph unicode="&#xe635;" glyph-name="road-tax" d="M682.667 725.334v170.667h-341.333c-23.552 0-42.667-19.115-42.667-42.667v-384h298.667c47.061 0 85.333-38.272 85.333-85.333v-256h213.333c23.552 0 42.667 19.115 42.667 42.667v469.333h-170.667c-47.061 0-85.333 38.272-85.333 85.333zM725.333 896v-170.667c0-23.552 19.115-42.667 42.667-42.667h170.667l-213.333 213.333zM0-0c0-23.467 19.2-42.667 42.667-42.667h554.667c23.467 0 42.667 19.2 42.667 42.667v213.333h-640v-213.333zM597.333 426.667h-554.667c-23.467 0-42.667-19.2-42.667-42.667v-85.333h640v85.333c0 23.467-19.2 42.667-42.667 42.667z" />
<glyph unicode="&#xe636;" glyph-name="road-side-assistance" d="M405.333 742.4c-4.267-81.067-68.267-145.068-149.333-145.068s-145.067 64-149.333 140.8v46.935c0 72.533 59.733 140.8 128 149.333 59.733 8.533 115.201-17.067 145.068-64 8.533-8.533 21.33-17.068 34.13-17.068h55.469c25.6 0 42.667-17.067 42.667-42.667v-42.667h-106.667v-25.599zM622.933 200.534l-153.6 251.733c-4.267 8.533-29.867 46.933-42.667 63.998l170.667 204.802c12.8 17.067 42.667 21.332 59.733 4.266l51.2-42.667 4.267 4.265c12.8 17.067 42.667 21.335 59.733 4.268l38.4-34.133c17.067-12.8 21.333-42.668 4.267-59.734l-4.267-4.266 51.2-42.667c17.067-12.8 21.333-42.667 4.267-59.733l-243.2-290.133zM42.667 348.54c13.429 4.553 27.77 7.014 42.666 7.014 54.962 0 102.374-33.527 124.25-81.941 0.925-2.044 2.89-3.392 5.071-3.392h29.765c3.030 0 5.486 2.547 5.486 5.692v2.842c0 3.145-2.456 5.692-5.486 5.692h-5.919c-2.144 0-4.085 1.301-5.021 3.298-26.659 56.977-82.98 96.256-148.147 96.256-14.050 0-27.689-1.826-40.708-5.261 15.229 94.682 93.287 167.393 194.308 167.393 76.8 0 140.799-38.399 174.932-98.132 1.859-1.86 19.113-28.838 40.463-62.217 27.644-43.221 62.157-97.178 79.006-121.25l72.533-115.2c4.267-4.267 8.533-8.533 17.067-8.533s12.8 4.267 17.067 8.533l196.267 234.667 34.133-25.6c34.133-29.867 38.4-81.067 8.533-123.733l-192-226.133c-25.6-29.867-64-46.933-98.133-46.933-38.4 0-81.067 21.333-106.667 59.733l-85.331 140.8c-8.533 12.8-21.336 12.8-29.87 8.533-12.8-4.267-17.065-21.333-8.532-29.867l85.332-140.8c8.533-17.067 25.6-34.133 42.667-46.933h-443.733v95.39c13.607-3.776 27.91-5.79 42.666-5.79 65.167 0 121.487 39.279 148.147 96.256 0.936 1.997 2.877 3.298 5.021 3.298h5.919c3.030 0 5.486 2.547 5.486 5.692v2.842c0 3.145-2.456 5.692-5.486 5.692h-29.765c-2.18 0-4.145-1.348-5.071-3.392-21.877-48.414-69.288-81.941-124.25-81.941-14.896 0-29.237 2.462-42.666 7.014v100.011c14.19-0.239 28.412-0.358 42.665-0.358 60.354 0 120.147 2.159 179.296 6.387 7.165 0.516 12.706 6.707 12.706 14.153v30.029c0 7.45-5.541 13.636-12.706 14.153-59.148 4.228-118.94 6.387-179.293 6.387-14.254 0-28.477-0.119-42.668-0.358v100.011z" />
<glyph unicode="&#xe637;" glyph-name="running-cost" d="M981.333 768h-42.667c-19.755 0-35.627-13.696-40.491-31.915l-80.555 128.64c-18.133 28.971-49.365 47.232-83.541 49.024-45.312 2.347-90.965 3.541-136.875 3.541s-91.563-1.195-136.875-3.541c-34.219-1.792-65.408-20.053-83.584-49.024l-80.299-128.299c-4.992 18.048-20.821 31.573-40.448 31.573h-42.667c-23.552 0-42.667-19.115-42.667-42.667s19.115-42.667 42.667-42.667h25.216c-16.256-30.293-25.259-63.957-25.259-98.432v-114.901h206.208l-45.355 72.448c-28.416 3.541-55.765 10.539-81.152 21.419-12.885 5.504-23.637 15.019-31.104 26.88l-1.749 2.816c-3.456 5.547-5.291 11.947-5.291 18.475v16.043c0 10.453 11.008 17.067 20.352 12.373 27.989-14.037 58.496-23.808 90.624-28.544 10.325-1.536 19.627-7.083 25.131-15.915l78.848-125.995h127.531c31.445 0 58.667-17.28 73.472-42.667h27.051l105.557 168.619c5.547 8.832 14.805 14.421 25.131 15.915 32.128 4.736 62.635 14.549 90.624 28.544 9.344 4.693 20.352-1.92 20.352-12.373v-16.043c0-6.528-1.835-12.928-5.291-18.475l-1.749-2.773c-7.424-11.861-18.219-21.376-31.104-26.88-25.387-10.88-52.736-17.877-81.152-21.419l-98.731-157.781h-38.827v-63.915c57.301 1.963 114.304 5.12 170.667 10.581v-74.667c0-23.552 19.115-42.667 42.667-42.667h42.667c23.552 0 42.667 19.115 42.667 42.667v256h-0.256v72.235c0 34.517-9.003 68.181-25.259 98.432h25.515c23.552 0 42.667 19.115 42.667 42.667s-19.115 42.667-42.667 42.667zM680.149 512h-165.973l-59.947 95.787c17.152-0.939 34.432-1.536 51.669-2.133l31.957-50.987h118.699l31.915 50.987c17.237 0.597 34.517 1.195 51.669 2.133l-59.989-95.787zM597.205 701.184c-80.512 0-160.299 4.395-239.317 12.757l73.131 116.779c7.040 11.264 19.243 18.389 32.597 19.072 44.331 2.304 89.259 3.456 133.589 3.456s89.259-1.152 133.589-3.456c13.355-0.683 25.557-7.808 32.597-19.072l73.131-116.779c-79.019-8.363-158.848-12.757-239.317-12.757zM0-0c0-23.467 19.2-42.667 42.667-42.667h554.667c23.467 0 42.667 19.2 42.667 42.667v213.333h-640v-213.333zM597.333 426.667h-554.667c-23.467 0-42.667-19.2-42.667-42.667v-85.333h640v85.333c0 23.467-19.2 42.667-42.667 42.667z" />
<glyph unicode="&#xe638;" glyph-name="slider-arrow-left" d="M898.048 512h-541.312l215.68 216.448c33.237 33.365 33.152 87.424-0.213 120.704-33.451 33.28-87.467 33.152-120.704-0.213l-420.821-422.357 420.992-420.992c16.64-16.683 38.485-25.003 60.331-25.003s43.648 8.32 60.331 25.003c33.323 33.323 33.323 87.339 0 120.661l-215.083 215.083h540.8c47.104 0 85.333 38.229 85.333 85.333s-38.229 85.333-85.333 85.333z" />
<glyph unicode="&#xe639;" glyph-name="slider-arrow-right" d="M572.331 847.744c-33.323 33.323-87.381 33.323-120.661 0-33.323-33.323-33.323-87.339 0-120.661l215.083-215.083h-540.8c-47.104 0-85.333-38.229-85.333-85.333s38.229-85.333 85.333-85.333h541.312l-215.68-216.491c-33.237-33.365-33.152-87.424 0.213-120.661 16.64-16.597 38.443-24.875 60.245-24.875 21.888 0 43.776 8.363 60.459 25.131l420.821 422.357-420.992 420.949z" />
<glyph unicode="&#xe63a;" glyph-name="social-facebook-fill" d="M512 896c-259.2 0-469.333-210.133-469.333-469.333 0-234.24 171.648-428.416 395.989-463.616v327.936h-119.168v135.68h119.168v103.381c0 117.632 70.059 182.613 177.28 182.613 51.371 0 105.045-9.173 105.045-9.173v-115.499h-59.179c-58.283 0-76.501-36.181-76.501-73.301v-88.021h130.176l-20.821-135.68h-109.355v-327.979c224.384 35.243 396.032 229.419 396.032 463.659 0 259.2-210.133 469.333-469.333 469.333z" />
<glyph unicode="&#xe63b;" glyph-name="social-google-plus-fill" d="M512 896c-259.2 0-469.333-210.133-469.333-469.333s210.133-469.333 469.333-469.333 469.333 210.133 469.333 469.333-210.133 469.333-469.333 469.333zM401.024 196.31c-127.36 0-230.357 102.997-230.357 230.357s102.997 230.357 230.357 230.357c62.208 0 114.176-22.699 154.325-60.203l-62.549-60.203c-17.109 16.469-47.061 35.541-91.819 35.541-78.635 0-142.805-65.152-142.805-145.451s64.171-145.451 142.805-145.451c91.136 0 125.397 65.493 130.645 99.371h-130.603v78.976h217.515c1.963-11.52 3.627-23.040 3.627-38.187 0-131.669-88.192-225.109-221.141-225.109zM828.843 393.771v-65.835h-65.835v65.835h-65.835v65.835h65.835v65.792h65.835v-65.835h65.835v-65.835h-65.835z" />
<glyph unicode="&#xe63c;" glyph-name="social-instagram-fill" d="M747.691 605.014c-5.504 14.123-12.032 24.192-22.613 34.773s-20.651 17.152-34.773 22.613c-10.667 4.139-26.667 9.088-56.149 10.411-31.872 1.451-41.429 1.749-122.155 1.749s-90.283-0.299-122.197-1.792c-29.483-1.323-45.483-6.272-56.149-10.411-14.080-5.461-24.149-12.032-34.731-22.613s-17.152-20.651-22.613-34.731c-4.139-10.667-9.088-26.667-10.411-56.149-1.493-31.915-1.792-41.472-1.792-122.197s0.299-90.283 1.749-122.197c1.323-29.483 6.272-45.483 10.411-56.149 5.504-14.123 12.032-24.192 22.613-34.773s20.651-17.152 34.773-22.613c10.667-4.139 26.667-9.088 56.149-10.411 31.915-1.451 41.472-1.749 122.197-1.749s90.283 0.299 122.197 1.749c29.483 1.323 45.483 6.272 56.149 10.411 14.123 5.504 24.192 12.032 34.773 22.613s17.152 20.651 22.613 34.773c4.139 10.667 9.088 26.667 10.411 56.149 1.451 31.872 1.749 41.429 1.749 122.197s-0.299 90.283-1.749 122.197c-1.365 29.483-6.315 45.483-10.453 56.149zM512 271.403c-85.76 0-155.264 69.504-155.264 155.264s69.504 155.264 155.264 155.264 155.264-69.504 155.264-155.264-69.504-155.264-155.264-155.264zM673.408 551.766c-20.053 0-36.267 16.256-36.267 36.267s16.256 36.267 36.267 36.267 36.267-16.256 36.267-36.267-16.213-36.267-36.267-36.267zM612.779 426.667c0-55.659-45.12-100.779-100.779-100.779s-100.779 45.12-100.779 100.779c0 55.659 45.12 100.779 100.779 100.779s100.779-45.12 100.779-100.779zM512 896c-259.2 0-469.333-210.133-469.333-469.333s210.133-469.333 469.333-469.333 469.333 210.133 469.333 469.333-210.133 469.333-469.333 469.333zM812.544 301.995c-1.451-32.171-6.571-54.144-14.037-73.387-7.723-19.883-18.048-36.736-34.859-53.547s-33.664-27.136-53.547-34.859c-19.243-7.467-41.216-12.587-73.387-14.037-32.256-1.451-42.539-1.835-124.672-1.835s-92.416 0.341-124.672 1.835c-32.171 1.451-54.144 6.571-73.387 14.037-19.883 7.723-36.736 18.048-53.547 34.859s-27.136 33.664-34.859 53.547c-7.467 19.243-12.587 41.216-14.037 73.387-1.536 32.256-1.92 42.539-1.92 124.672s0.341 92.416 1.835 124.672c1.451 32.171 6.571 54.144 14.037 73.387 7.723 19.883 18.048 36.736 34.859 53.547s33.664 27.136 53.547 34.859c19.285 7.509 41.259 12.629 73.429 14.080 32.256 1.451 42.539 1.835 124.672 1.835s92.416-0.341 124.672-1.835c32.171-1.451 54.144-6.571 73.387-14.037 19.883-7.723 36.736-18.048 53.547-34.859s27.136-33.664 34.859-53.547c7.467-19.243 12.587-41.216 14.037-73.387 1.451-32.256 1.835-42.539 1.835-124.672s-0.341-92.459-1.792-124.715z" />
<glyph unicode="&#xe63d;" glyph-name="social-linkedin-fill" d="M337.408 494.336h75.648v-240.299h-75.648v240.299zM604.075 500.907c-39.040 0-64.555-25.259-71.893-40.064h-0.981v33.28h-72.747v-240.299h75.648v130.261c0 34.731 22.016 51.627 44.459 51.627 21.248 0 37.675-11.947 37.675-50.645v-131.243h75.648v148.608c0 73.429-45.568 98.475-87.808 98.475zM375.253 614.486c-24.064 0-43.605-18.347-43.605-43.435s19.499-43.435 43.605-43.435 43.605 18.347 43.605 43.435-19.541 43.435-43.605 43.435zM512 896c-259.2 0-469.333-210.133-469.333-469.333s210.133-469.333 469.333-469.333 469.333 210.133 469.333 469.333-210.133 469.333-469.333 469.333zM766.208 216.704c0-20.523-16.64-37.12-37.12-37.12h-428.843c-20.523 0-37.12 16.64-37.12 37.12v428.8c0 20.523 16.597 37.163 37.12 37.163h428.843c20.523 0 37.12-16.64 37.12-37.12v-428.843z" />
<glyph unicode="&#xe63e;" glyph-name="social-ok-fill" d="M512 511.958c46.891 0 84.907 37.973 84.907 84.821 0 46.976-37.973 85.035-84.907 85.035-47.019 0-84.907-37.973-84.907-84.949 0-46.848 37.931-84.907 84.907-84.907zM512 896c-259.2 0-469.333-210.133-469.333-469.333s210.133-469.333 469.333-469.333 469.333 210.133 469.333 469.333-210.133 469.333-469.333 469.333zM512 769.494c95.317 0 172.672-77.312 172.672-172.672 0-95.275-77.312-172.587-172.672-172.587v0.043c-95.317 0-172.587 77.227-172.587 172.501 0 95.403 77.184 172.715 172.587 172.715zM665.472 324.779c-36.608-23.68-87.211-32.469-119.851-35.797l129.237-129.152c15.317-15.275 15.317-40.363 0-55.723l-4.651-4.651c-15.275-15.616-40.576-15.616-55.893 0-25.984 25.771-63.275 62.933-101.845 101.547l-101.589-101.547c-15.531-15.616-40.491-15.616-56.021 0l-4.736 4.651c-15.403 15.147-15.403 40.235 0 55.723 25.856 25.856 63.147 63.147 101.675 101.589l27.477 27.563c-32.853 3.243-83.669 12.075-120.619 35.968-43.307 27.563-62.635 44.075-45.611 78.165 9.728 19.627 36.736 35.84 72.533 7.808 48.555-38.272 126.421-38.272 126.421-38.272s77.952 0 126.293 38.187c35.925 28.16 62.933 11.947 72.533-7.68v0c17.237-34.091-2.005-50.603-45.355-78.379z" />
<glyph unicode="&#xe63f;" glyph-name="social-youtube" d="M512 896c-259.2 0-469.333-210.133-469.333-469.333s210.133-469.333 469.333-469.333 469.333 210.133 469.333 469.333-210.133 469.333-469.333 469.333zM804.011 279.979c-6.997-26.24-27.648-46.891-53.888-53.888-47.531-12.757-238.123-12.757-238.123-12.757s-190.592 0-238.123 12.757c-26.24 6.997-46.891 27.648-53.888 53.888-12.757 47.531-12.757 146.688-12.757 146.688s0 99.157 12.715 146.688c7.040 26.24 27.691 46.891 53.931 53.888 47.531 12.757 238.123 12.757 238.123 12.757s190.592 0 238.123-12.757c26.24-6.997 46.891-27.648 53.888-53.888 12.757-47.531 12.757-146.688 12.757-146.688s0-99.157-12.757-146.688zM451.029 335.232l158.379 91.435-158.379 91.435z" />
<glyph unicode="&#xe640;" glyph-name="speed" d="M532.139 893.654c-280.149 11.221-510.805-212.608-510.805-490.24 0-187.136 104.747-349.781 258.816-432.512 17.621-9.472 37.632-13.568 57.6-13.568h348.331c20.053 0 40.192 4.096 57.856 13.611 156.587 84.181 262.229 250.88 258.603 441.899-4.608 246.485-224.085 470.955-470.4 480.811zM266.795 108.288c-7.979-9.259-21.973-9.856-30.891-1.536-79.488 73.984-129.237 179.499-129.237 296.661 0 95.616 33.323 183.339 88.704 252.672 3.371-9.003 7.979-17.536 14.336-25.131l10.709-12.8c-40.107-54.357-65.493-120.064-70.101-191.488h84.437c11.733 0 21.248-9.515 21.248-21.291v-0.085c0-11.776-9.515-21.291-21.291-21.291h-84.267c4.736-89.088 41.387-169.813 99.243-230.485l43.648 51.029c7.637 8.917 21.077 9.984 29.995 2.347v0c8.96-7.637 9.984-21.12 2.304-30.080l-58.837-68.523zM414.123 486.827l-155.392 185.216c-7.552 9.003-6.4 22.485 2.645 30.037 9.003 7.552 22.485 6.4 30.037-2.645l155.051-184.789c-12.331-7.381-23.168-16.811-32.341-27.819zM512 341.334c-35.371 0-64 28.672-64 64s28.629 64 64 64c35.328 0 64-28.672 64-64s-28.672-64-64-64zM757.205 108.288l-58.88 68.523c-7.68 8.917-6.656 22.4 2.304 30.080h0.043c8.917 7.637 22.357 6.571 29.995-2.347l43.648-51.029c57.856 60.672 94.507 141.397 99.243 230.485h-84.267c-11.733 0-21.291 9.515-21.291 21.291v0.085c0 11.776 9.557 21.291 21.291 21.291h84.181c-5.973 93.483-47.275 177.323-110.976 238.336l-44.16-51.669c-7.637-8.917-21.077-9.984-29.995-2.347l-0.043 0.043c-8.96 7.637-9.984 21.077-2.347 30.037l44.032 51.541c-60.8 45.867-136.149 73.472-217.984 73.472-57.813 0-112.341-13.952-160.896-38.144l-10.667 12.715c-6.443 7.68-14.293 13.611-22.741 18.517 59.264 32.427 127.488 50.56 200.021 49.536 218.283-3.029 396.544-181.248 399.573-399.531 1.664-119.467-48.427-227.2-129.195-302.379-8.917-8.363-22.955-7.765-30.891 1.493z" />
<glyph unicode="&#xe641;" glyph-name="test-drive" d="M491.776 893.654c-255.957-10.283-465.536-224.725-470.357-480.853-3.584-191.019 102.059-357.675 258.603-441.856 17.707-9.515 37.803-13.611 57.856-13.611h348.331c19.968 0 40.021 4.096 57.6 13.568 154.069 82.773 258.816 245.376 258.816 432.512 0.043 277.675-230.656 501.504-510.848 490.24zM448 362.667c0 35.328 28.629 64 64 64 35.328 0 64-28.672 64-64s-28.672-64-64-64c-35.371 0-64 28.672-64 64zM674.432 42.667h-1.323c-30.848 0-51.541 31.787-38.997 59.989l71.040 160.043c19.541 41.984 26.752 90.837 13.227 142.933-20.608 79.232-86.613 141.995-167.211 156.331-135.083 23.979-252.501-79.232-252.501-209.877 0-32.043 7.467-62.165 20.181-89.387l71.040-160.043c12.544-28.203-8.149-59.989-38.997-59.989h-1.323c-14.805 0-29.653 3.413-42.411 10.923-83.883 49.28-146.347 127.104-177.707 217.387-4.736 13.568 6.059 27.691 20.437 27.691h111.957c-3.84 17.579-5.845 35.371-5.845 53.419 0 62.592 22.656 119.936 60.075 164.437l-173.653-57.899c-15.872-5.291-30.933 8.832-27.605 25.216 37.419 185.088 201.259 324.907 397.184 324.907 195.968 0 359.765-139.819 397.184-324.907 3.328-16.384-11.733-30.507-27.605-25.216l-173.653 57.899c37.419-44.544 60.075-101.888 60.075-164.437 0-18.048-2.005-35.925-5.845-53.419h111.957c14.379 0 25.173-14.123 20.437-27.691-31.317-90.283-93.824-168.064-177.707-217.387-12.757-7.509-27.605-10.923-42.411-10.923z" />
<glyph unicode="&#xe642;" glyph-name="Tick" d="M343.125 44.928l-274.645 271.915c-33.493 33.109-33.749 87.168-0.597 120.661s87.168 33.749 120.704 0.597l153.941-152.448 495.104 495.104c33.323 33.323 87.339 33.323 120.661 0s33.323-87.339 0-120.661l-615.168-615.168z" />
<glyph unicode="&#xe643;" glyph-name="torque" d="M491.904 893.654c-246.357-9.856-465.835-234.325-470.485-480.811-3.584-191.061 102.016-357.76 258.603-441.899 17.707-9.515 37.803-13.611 57.856-13.611h348.331c19.968 0 40.021 4.096 57.6 13.568 154.069 82.773 258.816 245.376 258.816 432.512 0.043 277.632-230.571 501.419-510.72 490.24zM247.765 125.014c-84.949 80.597-133.163 199.467-116.523 329.131 20.907 162.987 148.523 297.515 310.187 326.869 89.6 16.256 174.379 0.683 246.229-36.395-1.323-1.365-2.901-2.475-4.139-3.968l-53.035-63.232c-55.424 24.064-119.339 32.043-186.112 17.109-116.565-26.069-207.872-123.52-227.029-241.451-16.768-103.339 19.968-198.912 86.784-263.765 8.192-7.936 9.344-20.565 2.005-29.312l-27.52-32.811c-7.765-9.259-22.016-10.539-30.848-2.176zM512 341.334c-35.328 0-64 28.672-64 64s28.672 64 64 64 64-28.672 64-64-28.672-64-64-64zM577.536 514.688l155.051 184.789c7.595 9.045 21.035 10.197 30.037 2.645 9.045-7.552 10.197-21.035 2.645-30.037l-155.435-185.216c-9.131 10.965-19.925 20.395-32.299 27.819zM745.173 127.446c-10.795 12.843-17.408 20.736-27.264 32.469-7.339 8.747-6.272 21.461 1.877 29.397 55.979 54.272 90.88 130.133 90.88 214.101 0 60.672-18.261 117.077-49.451 164.224l53.12 63.317c1.195 1.408 2.005 3.072 3.115 4.565 49.067-64.555 78.549-144.811 78.549-232.107 0-109.611-46.037-208.341-119.68-278.315-8.832-8.405-23.296-6.997-31.147 2.347z" />
<glyph unicode="&#xe644;" glyph-name="towing" d="M170.667 482.006v-55.339h128v55.339c62.507 25.344 106.667 86.4 106.667 157.995 0 94.251-76.416 170.667-170.667 170.667s-170.667-76.416-170.667-170.667c0-71.595 44.16-132.651 106.667-157.995zM554.667 853.334v-352.512c0-40.235 14.208-79.189 40.149-109.952l257.493-305.664h-149.888c-6.357 0-12.373 2.816-16.469 7.68l-200.448 237.909c-28.373 33.664-70.144 53.077-114.133 53.077h-286.037c-23.552 0-42.667-19.115-42.667-42.667v-42.411c0-23.552 19.115-42.667 42.667-42.667h85.333v-170.795c0-23.552 19.115-42.667 42.667-42.667h42.667c23.552 0 42.667 19.115 42.667 42.667v170.752h72.661c6.315 0 12.331-2.773 16.384-7.637l200.448-237.909c28.373-33.664 70.187-53.12 114.219-53.12h321.621v895.915h-469.333z" />
<glyph unicode="&#xe645;" glyph-name="trash" d="M858.923 773.163c-72.107 9.515-145.195 16-218.923 19.968v60.203c0 47.147-38.187 85.333-85.333 85.333h-128c-47.147 0-85.333-38.187-85.333-85.333v-60.203c-73.728-3.968-146.816-10.453-218.923-19.968-21.248-2.816-37.077-21.205-37.077-42.667v-90.496h42.667v-597.333c0-47.147 38.187-85.333 85.333-85.333h554.667c47.147 0 85.333 38.187 85.333 85.333v597.333h42.667v90.496c0 21.461-15.829 39.851-37.077 42.667zM311.467 85.334h-55.467v512h55.467v-512zM518.4 85.334h-55.467v512h55.467v-512zM576 795.99c-28.373 0.853-56.747 1.579-85.333 1.579s-56.96-0.683-85.333-1.579v57.344c0 11.776 9.557 21.333 21.333 21.333h128c11.776 0 21.333-9.557 21.333-21.333v-57.344zM725.333 85.334h-55.467v512h55.467v-512z" />
<glyph unicode="&#xe646;" glyph-name="warranty" d="M896 896h-85.333v-383.957l-64 64-64-64v383.957h-554.667c-23.552 0-42.667-19.115-42.667-42.667v-853.333c0-23.552 19.115-42.667 42.667-42.667h768c23.552 0 42.667 19.115 42.667 42.667v853.333c0 23.552-19.115 42.667-42.667 42.667zM213.333 682.667h341.333v-42.667h-341.333v42.667zM213.333 554.667h341.333v-42.667h-341.333v42.667zM810.667 128h-597.333v42.667h597.333v-42.667zM810.667 256h-597.333v42.667h597.333v-42.667zM810.667 384h-597.333v42.667h597.333v-42.667z" />
<glyph unicode="&#xe647;" glyph-name="wheel" d="M800.256 463.104c-1.579 12.245-14.549 19.456-25.685 14.251l-117.589-54.656c0 1.237 0.341 2.347 0.341 3.541 0 33.195-11.648 63.531-30.464 87.979l127.403 24.96c11.989 2.347 18.432 15.701 12.544 26.411-41.173 75.008-114.304 130.048-201.045 146.347-12.032 2.261-22.699-7.936-21.248-20.096l15.659-129.109c-15.147 5.376-31.189 8.875-48.171 8.875s-33.024-3.499-48.213-8.875l15.659 129.109c1.493 12.117-9.216 22.357-21.248 20.096-86.699-16.299-159.872-71.339-201.003-146.347-5.888-10.709 0.555-24.021 12.544-26.368l127.403-24.96c-18.816-24.491-30.464-54.784-30.464-87.979 0-1.195 0.341-2.347 0.384-3.541l-117.589 54.656c-11.179 5.205-24.107-2.048-25.685-14.251-1.579-12.117-2.432-24.363-2.432-36.864 0-77.099 30.336-147.072 79.531-199.125 8.405-8.875 23.040-6.869 28.971 3.797l62.763 112.853c18.645-26.88 46.208-46.635 78.251-56.192l-88.448-95.104c-8.277-8.917-5.717-23.424 5.248-28.672 37.76-18.005 79.829-28.245 124.331-28.245s86.613 10.197 124.331 28.245c10.965 5.248 13.568 19.755 5.248 28.672l-88.448 95.104c32.043 9.557 59.605 29.312 78.251 56.192l62.763-112.853c5.931-10.667 20.565-12.629 28.971-3.797 49.195 52.011 79.531 122.027 79.531 199.125 0 12.459-0.811 24.747-2.389 36.821zM512 335.446c-50.176 0-90.837 40.661-90.837 90.837s40.661 90.795 90.837 90.795 90.837-40.661 90.837-90.837-40.661-90.795-90.837-90.795zM512 896c-259.2 0-469.333-210.133-469.333-469.333s210.133-469.333 469.333-469.333 469.333 210.133 469.333 469.333-210.133 469.333-469.333 469.333zM512 82.688c-189.995 0-343.979 153.984-343.979 343.979s153.984 343.979 343.979 343.979c189.952 0 343.979-153.984 343.979-343.979s-153.984-343.979-343.979-343.979z" />
<glyph unicode="&#xe648;" glyph-name="world" d="M512 896c-55.253 0-108.075-10.069-157.312-27.605l69.333-16c6.784-1.579 11.605-7.595 11.605-14.592v-1.579c0-8.277 6.699-14.976 14.976-14.976h79.872c10.325 0 19.925-5.333 25.387-14.080l9.899-15.787c4.437-7.125 6.827-15.36 6.827-23.808v-36.565c0-10.539-3.712-20.779-10.496-28.843l-88.021-104.917c-5.675-6.784-14.080-10.709-22.912-10.709h-53.547c-8.832 0-17.237-3.925-22.912-10.709l-14.677-17.408c-9.344-11.136-9.344-27.349 0-38.485l14.677-17.451c5.675-6.784 14.080-10.709 22.912-10.709h21.845c8.875 0 17.237-3.925 22.912-10.709l48.512-57.813c5.675-6.784 14.080-10.709 22.912-10.709h110.933c16.512 0 32.811-3.925 47.573-11.435l60.8-30.976c4.139-2.133 6.784-6.4 6.741-11.051 0-4.651 2.603-8.96 6.784-11.051l42.368-21.589c15.659-7.979 21.12-27.648 11.776-42.539l-61.397-98.304c-6.485-10.368-15.659-18.773-26.539-24.32l-50.389-25.685c-12.544-6.4-23.637-15.232-32.683-25.984l-78.805-93.909c-4.011-4.779-9.941-7.552-16.171-7.552-14.379 0-24.576 13.995-20.139 27.648l43.947 135.211c4.565 13.995-1.749 29.227-14.891 35.925v0c-8.661 4.437-16 11.136-21.12 19.371l-33.835 54.144c-6.869 11.008-5.888 25.173 2.475 35.115l7.979 9.472c9.344 11.136 9.344 27.349 0 38.485l-36.608 43.605c-9.045 10.795-20.139 19.627-32.683 25.984l-111.616 56.96c-12.075 6.144-22.272 15.488-29.483 27.008l-51.712 82.816c-16.427 26.24-20.352 58.453-10.795 87.893l34.389 105.941c1.408 4.224 0.853 8.832-1.536 12.544l-6.955 11.179c-126.251-84.139-209.536-227.669-209.536-390.784 0-259.2 210.133-469.333 469.333-469.333s469.333 210.133 469.333 469.333-210.133 469.333-469.333 469.333z" />
<glyph unicode="&#xe649;" glyph-name="wreath" d="M964.096 269.849c21.358 15.067 38.4 44.251 47.689 70.437 9.655 26.112 12.215 48.494 12.215 48.347-0.073-0.146-74.606-28.453-112.347-58.295-4.754-3.95-8.85-7.534-12.507-10.898 1.536 37.449-2.341 73.801-10.459 106.935 15.506-5.047 35.547-1.024 56.613 33.061 11.63 19.31 15.214 47.982 14.043 71.68-1.024 23.771-6.144 42.203-6.071 42.203-0.073-0.146-50.981-47.543-71.168-84.553-3.218-6.144-5.632-11.41-7.607-16.238-10.825 28.818-24.283 54.345-38.107 75.264-3.657 5.413-7.314 10.24-10.825 15.067 10.679 0.512 21.87 8.046 26.99 33.499 5.998 28.233-16.238 68.242-16.677 67.877 0-0.073-23.333-38.473-27.794-65.463-0.805-4.681-1.097-8.631-1.243-12.215-15.141 17.774-28.453 30.135-37.595 38.034 6.949 9.289 6.802 22.235-12.288 37.23-21.211 17.042-62.537 13.019-62.171 12.727 0.512-0.219 15.726-36.059 33.061-50.322 16.603-13.019 28.233-12.069 37.010-4.389 8.631-8.192 20.992-20.992 34.962-38.985-3.438 0.512-7.241 0.878-11.776 0.731-26.99-0.731-63.415-26.99-63.342-26.917 0.219 0.219 27.429-13.166 53.248-13.531 22.967-0.073 34.743 5.778 39.131 15.287 3.218-4.754 6.363-9.509 9.582-14.848 12.434-20.846 23.991-45.934 33.134-73.874-4.389 2.267-9.435 4.389-15.433 6.217-39.57 12.581-104.448-10.898-104.155-10.898 0.293 0.219 31.232-26.112 67.145-39.936 32.037-11.703 52.151-11.118 64.219-0.731 5.998-31.89 8.119-66.341 5.047-101.376-3.218 3.584-6.802 7.314-11.264 10.971-36.059 30.939-114.834 33.865-114.615 33.719 0-0.073 5.705-9.582 14.848-23.040 9.362-13.458 21.577-31.305 37.669-46.153 26.405-25.088 46.665-34.597 63.634-31.305-8.558-34.158-22.089-67.218-40.082-97.426-1.317 4.169-2.853 8.411-4.901 13.093-21.358 48.933-101.157 88.283-100.864 87.918-0.073 0 1.609-11.483 4.827-28.745 3.365-17.115 7.461-40.521 16.238-63.195 8.923-22.674 17.115-39.351 26.917-50.103 5.851-6.437 12.288-10.459 19.090-12.8-21.577-24.649-45.861-45.568-71.168-62.464 0.585 4.389 1.17 8.631 1.243 13.605 0.658 29.038-14.043 63.854-29.623 90.112-15.653 26.478-31.232 45.056-31.159 45.129-0.146 0-3.072-11.849-7.387-30.062-4.096-18.286-10.606-42.862-12.581-69.632-1.902-26.697-2.048-47.397 2.267-62.83 2.414-8.777 6.363-15.726 11.337-21.285-17.993-7.241-35.621-12.8-52.224-16.677-34.889-8.192-65.097-9.874-86.967-9.947-21.943 0.073-52.151 1.682-86.967 9.947-16.53 3.877-34.158 9.435-52.151 16.75 4.901 5.486 8.923 12.434 11.264 21.211 4.389 15.433 4.242 36.133 2.267 62.83-1.975 26.77-8.485 51.346-12.507 69.632-4.315 18.213-7.314 30.062-7.387 30.062 0.073-0.073-15.506-18.725-31.086-45.056-15.506-26.258-30.281-61.074-29.696-90.112 0.073-4.901 0.731-9.143 1.243-13.605-25.234 16.896-49.591 37.888-71.095 62.464 6.729 2.341 13.166 6.363 19.017 12.873 9.801 10.606 17.993 27.355 26.99 50.103 8.85 22.674 12.8 46.007 16.165 63.122 3.218 17.189 4.974 28.745 4.827 28.745 0.293 0.366-79.433-39.058-100.864-87.918-2.048-4.608-3.584-8.923-4.901-13.093-17.993 30.208-31.525 63.269-39.936 97.426 17.042-3.291 37.303 6.217 63.707 31.305 16.091 14.848 28.306 32.695 37.669 46.153 9.216 13.531 14.848 22.967 14.848 23.040 0.219 0.146-78.482-2.779-114.542-33.719-4.535-3.803-8.119-7.461-11.264-10.971-3.218 34.962-1.097 69.413 4.974 101.157 12.069-10.386 32.183-10.825 64.146 0.878 35.913 13.824 66.853 40.155 67.145 39.863 0.219 0-64.585 23.552-104.302 11.118-5.925-1.829-10.971-3.877-15.36-6.144 9.143 27.867 20.699 52.955 33.134 73.801 3.218 5.339 6.437 10.021 9.582 14.848 4.535-9.509 16.238-15.433 39.205-15.287 25.673 0.366 52.955 13.751 53.102 13.605 0.073 0-36.279 26.112-63.269 26.917-4.535 0.073-8.338-0.293-11.703-0.805 13.897 17.993 26.258 30.72 34.889 38.912 8.85-7.68 20.407-8.631 36.937 4.389 17.335 14.263 32.549 50.103 33.061 50.322 0.512 0.293-40.96 4.315-62.098-12.727-19.163-14.994-19.237-27.941-12.361-37.23-9.143-7.899-22.382-20.334-37.595-38.034-0.073 3.511-0.439 7.461-1.17 12.215-4.389 26.917-27.794 65.39-27.867 65.463-0.366 0.293-22.528-39.717-16.457-67.95 5.047-25.454 16.238-32.914 26.99-33.426-3.657-4.901-7.241-9.728-10.898-15.141-13.897-20.992-27.355-46.519-38.181-75.337-1.975 4.901-4.462 10.167-7.607 16.311-20.114 37.010-71.168 84.407-71.168 84.553 0 0-5.047-18.432-6.071-42.203-1.17-23.698 2.414-52.37 14.117-71.68 21.065-34.011 41.179-38.107 56.539-32.987-7.973-33.207-11.995-69.486-10.386-106.935-3.657 3.365-7.68 6.949-12.434 10.825-37.742 29.842-112.347 58.222-112.347 58.295 0 0.146 2.56-22.309 12.215-48.347 9.289-26.112 26.405-55.296 47.689-70.437 36.352-25.088 58.807-20.992 72.558-9.582 7.461-37.449 20.626-74.094 38.985-108.032-4.681 1.39-9.655 2.706-15.433 4.096-53.102 11.703-142.775 6.437-142.994 6.51 0 0.146 13.531-22.455 36.498-45.202 22.747-22.894 55.077-44.544 84.407-49.225 29.184-4.827 48.421-0.293 60.782 7.241 7.607 4.681 12.434 10.679 15.799 17.189 22.455-27.867 48.274-51.931 75.483-71.607-4.681-0.878-9.289-1.609-14.629-2.779-59.026-13.678-147.602-60.123-147.822-60.123 0 0.146 24.649-16.969 59.319-29.403 34.45-12.873 78.336-19.237 110.226-9.509 32.037 9.509 48.786 23.625 57.271 37.303 4.827 7.899 6.656 15.726 6.949 23.333 19.749-8.777 39.205-15.506 57.637-20.334 38.693-10.313 72.558-12.873 97.061-12.873s58.368 2.487 97.061 12.8c18.359 4.754 37.815 11.557 57.563 20.334 0.293-7.607 2.121-15.433 6.949-23.333 8.485-13.678 25.307-27.794 57.271-37.303 31.963-9.728 75.849-3.365 110.299 9.509 34.67 12.434 59.319 29.55 59.319 29.403-0.219 0-88.795 46.519-147.822 60.123-5.339 1.17-9.947 1.902-14.629 2.779 27.209 19.749 53.102 43.813 75.483 71.607 3.291-6.51 8.119-12.507 15.799-17.189 12.361-7.534 31.598-12.069 60.855-7.241 29.257 4.535 61.659 26.258 84.334 49.225 22.894 22.747 36.498 45.349 36.498 45.202-0.219-0.073-89.893 5.12-142.994-6.51-5.705-1.39-10.679-2.706-15.36-4.169 18.359 34.011 31.525 70.656 38.985 108.032 13.678-11.264 36.206-15.287 72.485 9.728z" />
<glyph unicode="&#xe64a;" glyph-name="your-choice" d="M512-42.666c-259.206 0-469.333 210.129-469.333 469.333 0 259.206 210.128 469.333 469.333 469.333 259.204 0 469.333-210.128 469.333-469.333s-210.129-469.333-469.333-469.333zM232.835 336.555l157.909-157.867 358.657 358.658c16.64 16.64 16.64 43.691 0 60.331s-43.691 16.64-60.331 0l-298.327-298.327-97.579 97.536c-16.683 16.64-43.691 16.64-60.331 0-16.683-16.64-16.683-43.691 0-60.331z" />
<glyph unicode="&#xe64b;" glyph-name="social-youtube1" d="M961.408 648.107c-10.709 40.064-42.24 71.595-82.304 82.304-72.619 19.456-363.776 19.456-363.776 19.456s-291.157 0-363.776-19.456c-40.064-10.667-71.595-42.24-82.304-82.304-19.456-72.619-19.456-224.085-19.456-224.085s0-151.509 19.456-224.128c10.709-40.064 42.24-71.595 82.304-82.304 72.619-19.456 363.776-19.456 363.776-19.456s291.157 0 363.776 19.456c40.064 10.709 71.595 42.24 82.304 82.304 19.456 72.619 19.456 224.128 19.456 224.128s0 151.467-19.456 224.085zM422.229 284.331v279.339l241.877-139.648-241.877-139.691z" />
<glyph unicode="&#xe64c;" glyph-name="zoom" d="M790.656 239.019c-7.381 6.912-10.667 18.261-4.437 26.923 0.043 0.043 0 0.085 0.043 0.128 43.477 64.299 69.419 141.312 69.419 224.597 0 222.293-180.864 403.157-403.157 403.157s-403.157-180.864-403.157-403.157c0-222.293 180.864-403.157 403.157-403.157 80.213 0 154.667 24.021 217.515 64.597 8.277 6.699 20.309 6.699 27.52-1.152l167.851-167.68c12.501-12.501 28.885-18.731 45.269-18.731s32.768 6.229 45.269 18.731c25.003 25.003 25.003 65.493 0 90.496l-165.291 165.248zM452.48 215.51c-151.723 0-275.157 123.477-275.157 275.157 0 151.723 123.435 275.157 275.157 275.157s275.157-123.435 275.157-275.157c0.043-151.723-123.435-275.157-275.157-275.157z" />
<glyph unicode="&#xe64d;" glyph-name="download-a-brochure" d="M674.688 174.72l107.307-39.168c13.952-5.077 28.672 5.205 28.672 20.053v740.395h-725.333v-938.667h469.333l65.024 191.061c7.68 22.656 32.555 34.517 54.997 26.325zM469.333 221.824l-128 204.843h85.333v213.333h85.333v-213.333h85.333l-128-204.843zM896 896h-42.667v-760.363c0-16.043-9.003-30.72-23.296-38.016l-275.371-140.288h341.333c23.552 0 42.667 19.115 42.667 42.667v853.333c0 23.552-19.115 42.667-42.667 42.667z" />
<glyph unicode="&#xe64e;" glyph-name="build" d="M512 589.782c-76.587 0-138.667-62.080-138.667-138.667s62.080-138.667 138.667-138.667c76.587 0 138.667 62.080 138.667 138.667s-62.080 138.667-138.667 138.667zM981.205 640h-64c-21.205 0-37.973-15.701-41.301-35.968l-94.293 150.827c-22.187 35.499-60.331 57.856-102.144 59.989-55.424 2.901-111.232 4.352-167.339 4.352-56.149 0-111.957-1.451-167.339-4.309-41.813-2.176-79.957-24.533-102.144-60.032l-94.464-151.125c-3.243 20.395-20.096 36.267-41.387 36.267h-64c-23.552 0-42.667-19.115-42.667-42.667v-42.667c0-23.552 19.115-42.667 42.667-42.667h20.821c-13.568-31.701-20.821-65.835-20.821-100.565l-0.256-411.435c0-23.552 19.115-42.667 42.667-42.667h85.333c23.552 0 42.667 19.115 42.667 42.667v99.669c98.475-9.131 198.059-14.336 298.923-14.336 100.693 0 200.107 5.205 298.411 14.293v-99.627c0-23.552 19.115-42.667 42.667-42.667h85.333c23.552 0 42.667 19.115 42.667 42.667l0.256 411.435c0 34.731-7.296 68.864-20.821 100.565h20.608c23.552 0 42.667 19.115 42.667 42.667v42.667c-0.043 23.552-19.157 42.667-42.709 42.667zM732.544 451.115c0-13.653-1.664-26.837-4.011-39.808l39.467-33.707-22.997-55.509-51.499 4.053c-15.275-22.101-34.389-41.259-56.491-56.533l4.053-51.499-55.509-22.997-33.707 39.467c-12.928-2.347-26.197-4.011-39.808-4.011-13.653 0-26.837 1.664-39.808 4.011l-33.707-39.467-55.509 22.997 4.053 51.499c-22.101 15.275-41.259 34.432-56.533 56.533l-51.499-4.053-23.040 55.509 39.467 33.707c-2.347 12.971-4.011 26.155-4.011 39.808s1.664 26.837 4.011 39.808l-39.467 33.707 22.997 55.509 51.499-4.053c15.275 22.101 34.432 41.259 56.533 56.491l-4.053 51.541 55.509 22.997 33.707-39.467c12.971 2.347 26.197 4.011 39.808 4.011s26.837-1.664 39.808-4.011l33.707 39.467 55.509-22.997-4.053-51.499c22.101-15.232 41.259-34.389 56.491-56.491l51.499 4.053 23.040-55.552-39.467-33.707c2.347-12.971 4.011-26.197 4.011-39.808z" />
<glyph unicode="&#xe64f;" glyph-name="burger-menu" d="M872.875 362.667h-720c-35.371 0-64 28.629-64 64s28.629 64 64 64h720c35.328 0 64-28.629 64-64s-28.672-64-64-64zM872.875 682.667h-720c-35.371 0-64 28.629-64 64s28.629 64 64 64h720c35.328 0 64-28.629 64-64s-28.672-64-64-64zM872.021 42.667h-720.043c-35.371 0-64 28.672-64 64s28.629 64 64 64h720.043c35.328 0 64-28.672 64-64s-28.629-64-64-64z" />
<glyph unicode="&#xe650;" glyph-name="capacity" d="M961.707 782.592c-7.168 64.683-62.123 113.408-127.147 113.408h-645.077c-65.067 0-120.021-48.725-127.189-113.408-12.885-116.181-19.541-234.24-19.627-353.835v-428.757c0-23.552 19.115-42.667 42.667-42.667h85.333c23.552 0 42.667 19.115 42.667 42.667v85.333h597.333v-85.333c0-23.552 19.115-42.667 42.667-42.667h85.333c23.552 0 42.667 19.115 42.667 42.667v428.757c-0.085 119.595-6.741 237.653-19.627 353.835zM729.088 757.163l-28.032-199.339-49.024 41.131-162.475-193.621h-84.224v32.384l181.333 216.107-49.024 41.131 191.445 62.208zM682.667 192v64h-426.667v384h-64l106.667 170.709 106.667-170.709h-64v-298.667h341.333v64l170.709-106.667-170.709-106.667z" />
<glyph unicode="&#xe651;" glyph-name="car" d="M33.664 312.363c14.805-3.157 33.067-6.827 51.797-10.027 2.133 68.736 58.368 124.075 127.616 124.075 70.485 0 127.829-57.301 128-127.744h341.376c0.128 70.443 57.472 127.744 128 127.744s127.829-57.301 128-127.744h42.539c23.979 0 43.307 19.755 42.667 43.776-0.853 32.896-3.371 81.237-10.155 134.187-2.176 16.853-14.080 30.933-30.379 35.755-44.672 13.227-90.624 23.893-137.728 31.744-33.323 5.589-66.475 9.6-99.541 12.203-30.421 16.427-61.653 31.872-93.781 46.165-61.355 27.307-123.648 49.664-186.496 67.243-19.029 0.939-38.101 1.408-57.301 1.408-37.163 0-74.624-1.792-112.384-5.419-57.173-5.547-113.707-15.36-167.893-28.757v-21.163c-23.851-18.304-47.275-37.461-70.101-57.557-9.301-8.149-14.72-19.84-14.72-32.213v-41.173c0-10.027-3.541-19.755-9.984-27.435l-23.211-27.648c-6.443-7.68-9.984-17.408-9.984-27.435v-48.299c0-20.096 13.995-37.504 33.664-41.685zM172.971 570.539c10.965 8.96 19.029 15.189 19.029 15.189 36.395 7.253 73.259 12.715 110.080 16.299 35.2 3.413 70.955 5.12 106.197 5.12 15.701 0 31.36-0.341 46.933-1.024 58.027-16.597 115.456-37.504 170.795-62.123 21.803-9.685 43.435-20.907 65.024-32h-477.696l-38.229 23.893c-12.416 7.765-13.483 25.387-2.133 34.645zM127.744 298.411c0-47.147 38.187-85.333 85.333-85.333 47.104 0 85.333 38.187 85.333 85.333s-38.229 85.333-85.333 85.333-85.333-38.187-85.333-85.333zM725.077 298.411c0-47.147 38.187-85.333 85.333-85.333 47.104 0 85.333 38.187 85.333 85.333s-38.229 85.333-85.333 85.333-85.333-38.187-85.333-85.333z" />
<glyph unicode="&#xe652;" glyph-name="cookie" d="M782.891 652.544c-79.275 27.904-141.269 101.12-142.549 192.256-0.299 20.352-14.72 37.419-34.688 41.557-72.875 15.019-151.68 13.568-233.643-12.117-170.581-53.504-299.605-202.325-324.523-379.349-40.747-289.536 182.912-537.557 464.512-537.557 234.325 0 428.16 171.819 463.275 396.288 3.029 19.285-8.917 37.547-27.136 44.587-76.672 29.696-144.512 106.752-136.96 211.883 1.365 18.944-10.368 36.139-28.288 42.453zM309.333 298.667c-29.44 0-53.333 23.893-53.333 53.333s23.893 53.333 53.333 53.333c29.44 0 53.333-23.893 53.333-53.333s-23.893-53.333-53.333-53.333zM522.667 554.667c-29.44 0-53.333 23.893-53.333 53.333s23.893 53.333 53.333 53.333c29.44 0 53.333-23.893 53.333-53.333s-23.893-53.333-53.333-53.333zM650.667 213.334c-29.44 0-53.333 23.893-53.333 53.333s23.893 53.333 53.333 53.333c29.44 0 53.333-23.893 53.333-53.333s-23.893-53.333-53.333-53.333z" />
<glyph unicode="&#xe653;" glyph-name="cylinder" d="M384 768v90.24c0 21.547-15.957 40.192-37.376 42.667-43.733 4.949-88.235 7.552-133.291 7.552s-89.557-2.56-133.291-7.552c-21.419-2.475-37.376-21.12-37.376-42.667v-90.24h341.333zM981.333 768v90.24c0 21.547-15.957 40.192-37.376 42.667-43.733 4.949-88.235 7.552-133.291 7.552s-89.557-2.56-133.291-7.552c-21.419-2.475-37.376-21.12-37.376-42.667v-90.24h341.333zM640 725.334v-189.099c0-12.843 11.221-22.571 23.979-20.992 19.371 2.432 38.869 4.352 58.496 5.803l-119.168-142.037c-5.76-6.869-15.019-9.045-23.509-6.187-21.291 7.211-44.075 11.179-67.797 11.179s-46.507-3.968-67.797-11.136c-8.491-2.859-17.749-0.683-23.509 6.187l-119.168 142.037c19.627-1.493 39.125-3.413 58.496-5.803 12.757-1.621 23.979 8.107 23.979 20.949v189.099h-341.333v-189.184c0-12.843 11.179-22.485 23.893-20.949 22.315 2.773 44.8 4.821 67.456 6.357l188.885-225.067c5.76-6.827 6.272-16.341 2.005-24.192-24.32-44.416-33.792-98.133-19.499-155.008 19.584-78.165 84.437-140.203 163.499-155.691 136.704-26.795 256.427 77.141 256.427 209.067 0 36.907-9.685 71.424-26.24 101.675-4.267 7.808-3.755 17.237 1.963 24.064l188.928 225.152c22.656-1.536 45.184-3.584 67.456-6.315 12.715-1.579 23.893 8.064 23.893 20.907v189.184h-341.333zM512 85.334c-47.147 0-85.333 38.187-85.333 85.333s38.187 85.333 85.333 85.333c47.147 0 85.333-38.187 85.333-85.333s-38.187-85.333-85.333-85.333z" />
<glyph unicode="&#xe654;" glyph-name="directions" d="M938.667 896h-853.333c-23.552 0-42.667-19.115-42.667-42.667v-853.333c0-23.552 19.115-42.667 42.667-42.667h853.333c23.552 0 42.667 19.115 42.667 42.667v853.333c0 23.552-19.115 42.667-42.667 42.667zM768 85.334h-128v128c0 23.552-19.115 42.667-42.667 42.667h-213.333c-70.699 0-128 57.301-128 128v170.667h-85.333l149.333 238.976 149.333-238.976h-85.333v-128c0-23.552 19.115-42.667 42.667-42.667h213.333c70.699 0 128-57.301 128-128v-170.667z" />
<glyph unicode="&#xe655;" glyph-name="discount" d="M658.603 294.827c-11.563 0-20.309-5.376-26.24-16.128-6.016-10.752-8.96-26.069-8.96-45.995 0-20.693 2.859-36.608 8.619-47.787 5.803-11.136 14.251-16.725 25.429-16.725 11.904 0 20.992 5.76 27.179 17.323s9.259 28.245 9.259 50.176c0 19.115-2.944 33.749-8.96 43.904s-14.763 15.232-26.325 15.232zM354.56 471.68c-11.904 0-20.992-5.803-27.179-17.323-6.187-11.563-9.259-28.288-9.259-50.176 0-19.115 2.987-33.749 8.96-43.904s14.72-15.232 26.283-15.232c11.563 0 20.309 5.376 26.283 16.128s8.96 26.069 8.96 45.995c0 20.693-2.901 36.608-8.661 47.787-5.76 11.136-14.251 16.725-25.387 16.725zM866.048 587.862l-256 305.109c-51.157 60.971-144.939 60.971-196.096 0l-256-305.109c-19.328-23.040-29.952-52.181-29.952-82.261v-473.429c0-42.795 31.616-79.616 74.155-84.608 101.632-11.989 205.013-18.176 309.845-18.176s208.213 6.187 309.845 18.176c42.539 4.949 74.155 41.771 74.155 84.565v473.472c0 30.080-10.581 59.221-29.952 82.261zM512 817.451c35.328 0 64-28.672 64-64s-28.672-64-64-64c-35.371 0-64 28.672-64 64s28.629 64 64 64zM278.699 326.187c-16.768 21.291-25.088 48.896-25.088 82.688 0 34.261 8.448 61.611 25.387 82.133 16.939 20.565 42.283 30.805 76.16 30.805 32.256 0 56.747-10.155 73.472-30.464 16.725-20.352 25.088-47.403 25.088-81.237 0-34.645-8.363-62.635-25.088-83.925-16.725-21.333-41.771-31.957-75.264-31.957-33.067 0-57.941 10.624-74.667 31.957zM442.368 125.782h-72.875l201.301 388.267h71.68l-200.107-388.267zM732.971 148.779c-16.896-20.48-42.283-30.763-76.16-30.763-32.256 0-56.747 10.112-73.472 30.464-16.725 20.309-25.088 47.36-25.088 81.195 0 34.645 8.363 62.635 25.088 83.968 16.725 21.291 41.813 31.957 75.264 31.957 33.067 0 57.941-10.667 74.667-31.957 16.768-21.333 25.131-48.896 25.131-82.731 0-34.261-8.533-61.611-25.429-82.133z" />
<glyph unicode="&#xe656;" glyph-name="document" d="M682.667 725.334v170.667h-554.667c-23.552 0-42.667-19.115-42.667-42.667v-853.333c0-23.552 19.115-42.667 42.667-42.667h768c23.552 0 42.667 19.115 42.667 42.667v640h-170.667c-47.061 0-85.333 38.272-85.333 85.333zM298.667 85.334h-85.333v341.333c0 23.552 19.115 42.667 42.667 42.667v0c23.552 0 42.667-19.115 42.667-42.667v-341.333zM469.333 85.334h-85.333v512c0 23.552 19.115 42.667 42.667 42.667v0c23.552 0 42.667-19.115 42.667-42.667v-512zM640 85.334h-85.333v341.333c0 23.552 19.115 42.667 42.667 42.667v0c23.552 0 42.667-19.115 42.667-42.667v-341.333zM810.667 85.334h-85.333v170.667c0 23.552 19.115 42.667 42.667 42.667v0c23.552 0 42.667-19.115 42.667-42.667v-170.667zM768 682.667h170.667l-213.333 213.333v-170.667c0-23.552 19.115-42.667 42.667-42.667z" />
<glyph unicode="&#xe657;" glyph-name="email-us" d="M436.139 498.859c-17.621-17.195-26.155-39.467-26.155-68.181 0-31.915 8.789-55.979 26.795-73.643 18.091-17.707 42.24-26.283 73.771-26.283 20.821 0 37.461 3.328 49.451 9.941 10.88 5.973 19.541 12.16 25.856 18.432v139.776c-20.224 16.939-46.464 25.557-78.080 25.557-30.507 0-53.973-8.363-71.637-25.6zM512 896c-259.2 0-469.333-210.133-469.333-469.333s210.133-469.333 469.333-469.333c259.2 0 469.333 210.133 469.333 469.333s-210.133 469.333-469.333 469.333zM806.272 353.579c-11.307-30.165-27.733-53.76-48.811-70.229-21.376-16.683-46.123-25.131-73.472-25.131-17.195 0-32.299 3.541-44.8 10.581-12.373 6.997-20.779 13.483-25.728 19.84-2.859 3.627-6.443 8.619-10.667 14.891-28.501-19.627-59.904-29.568-93.525-29.568-29.781 0-57.131 6.101-81.237 18.176-24.448 12.245-44.075 30.208-58.283 53.461-14.165 23.253-21.333 51.413-21.333 83.712 0 29.995 6.827 56.832 20.224 79.787 13.44 23.083 32.427 41.173 56.405 53.888 23.765 12.587 51.371 18.987 82.133 18.987 32.853 0 62.379-8.533 87.936-25.429l6.699 20.651h45.056v-217.515c0-12.885 3.499-23.083 10.667-31.189 6.784-7.68 15.701-11.392 27.179-11.392 13.696 0 25.941 5.205 37.419 15.915 12.075 11.264 21.803 27.477 28.928 48.213 7.296 21.333 11.008 46.464 11.008 74.709 0 50.304-11.648 92.587-34.645 125.653-23.083 33.195-53.333 58.027-89.984 73.771-37.248 15.957-77.867 24.021-120.704 24.021-51.2 0-96.853-10.496-135.637-31.147-38.485-20.523-68.651-49.579-89.6-86.315-21.035-36.864-31.701-79.659-31.701-127.147 0-51.627 11.477-98.475 34.133-139.179 22.571-40.576 54.869-72.832 95.957-95.872 41.216-23.125 89.643-34.859 143.957-34.859 17.92 0 38.955 1.92 62.464 5.717 23.723 3.797 47.317 9.301 70.229 16.341l13.824 4.267v-62.805l-7.765-2.219c-48.555-13.867-94.549-20.864-136.747-20.864-67.968 0-128.299 14.464-179.285 42.965-51.157 28.672-91.008 68.651-118.485 118.912-27.392 50.048-41.259 106.667-41.259 168.277 0 60.757 13.44 114.816 40.021 160.64 26.581 45.995 64.811 81.835 113.579 106.624 48.427 24.533 105.045 36.992 168.32 36.992 55.381 0 106.581-10.325 152.149-30.635 46.037-20.523 83.285-52.309 110.763-94.379 27.435-42.112 41.301-94.592 41.301-155.989 0.043-40.277-5.589-75.648-16.683-105.131z" />
<glyph unicode="&#xe658;" glyph-name="emission" d="M300.843 476.715c43.52 76.459 99.456 143.104 161.963 200.533-122.965 95.019-267.179 156.117-417.92 179.669-61.056-160.128-80.299-511.232 76.672-737.323 74.368-107.136 189.952-163.925 302.763-160.299-0.896 0.555-1.877 0.939-2.816 1.493-171.349 107.136-224.384 333.739-120.661 515.925zM991.061 872.192c-225.536-27.136-505.173-182.528-642.048-422.912-87.552-153.771-48.128-347.691 101.931-441.472s348.501-48.64 441.472 101.931c130.56 211.499 174.933 514.859 98.645 762.453zM907.221 413.611c-0.64 0-1.237 0-1.877 0.085l-166.571 14.549-123.179-197.12 189.184-16.555c11.733-1.024 20.437-11.392 19.413-23.125-0.981-11.093-10.283-19.499-21.248-19.499-0.64 0-1.237 0-1.877 0.085l-210.859 18.432-57.557-92.117c-4.053-6.443-11.008-10.027-18.091-10.027-3.84 0-7.765 1.024-11.307 3.243-9.984 6.229-13.013 19.413-6.784 29.397l57.557 92.117-109.013 181.419c-6.059 10.069-2.773 23.168 7.296 29.269 10.112 6.101 23.211 2.773 29.269-7.296l97.792-162.773 123.179 197.12-86.016 143.36c-6.059 10.069-2.773 23.168 7.296 29.269 10.112 6.101 23.211 2.773 29.269-7.296l74.88-124.672 121.6 194.645c6.229 9.984 19.371 13.056 29.397 6.784 9.984-6.229 13.013-19.413 6.784-29.397l-121.6-194.603 144.896-12.672c11.733-1.024 20.437-11.392 19.413-23.125-0.981-11.093-10.283-19.499-21.248-19.499z" />
<glyph unicode="&#xe659;" glyph-name="emission-control-standard" d="M300.843 476.715c43.52 76.459 99.456 143.104 161.963 200.533-122.965 95.019-267.179 156.117-417.92 179.669-61.056-160.128-80.299-511.232 76.672-737.323 74.368-107.136 189.952-163.925 302.763-160.299-0.896 0.555-1.877 0.939-2.816 1.493-171.349 107.136-224.384 333.739-120.661 515.925zM991.061 872.192c-225.536-27.136-505.173-182.528-642.048-422.912-87.552-153.771-48.128-347.691 101.931-441.472s348.501-48.64 441.472 101.931c130.56 211.499 174.933 514.859 98.645 762.453zM907.221 413.611c-0.64 0-1.237 0-1.877 0.085l-166.571 14.549-123.179-197.12 189.184-16.555c11.733-1.024 20.437-11.392 19.413-23.125-0.981-11.093-10.283-19.499-21.248-19.499-0.64 0-1.237 0-1.877 0.085l-210.859 18.432-57.557-92.117c-4.053-6.443-11.008-10.027-18.091-10.027-3.84 0-7.765 1.024-11.307 3.243-9.984 6.229-13.013 19.413-6.784 29.397l57.557 92.117-109.013 181.419c-6.059 10.069-2.773 23.168 7.296 29.269 10.112 6.101 23.211 2.773 29.269-7.296l97.792-162.773 123.179 197.12-86.016 143.36c-6.059 10.069-2.773 23.168 7.296 29.269 10.112 6.101 23.211 2.773 29.269-7.296l74.88-124.672 121.6 194.645c6.229 9.984 19.371 13.056 29.397 6.784 9.984-6.229 13.013-19.413 6.784-29.397l-121.6-194.603 144.896-12.672c11.733-1.024 20.437-11.392 19.413-23.125-0.981-11.093-10.283-19.499-21.248-19.499z" />
<glyph unicode="&#xe65a;" glyph-name="engine-size" d="M935.808 213.334c-37.845 0-73.771 16.725-98.091 45.739l-189.227 225.536c-15.147 18.048-12.8 44.971 5.248 60.117 18.091 15.147 44.971 12.8 60.117-5.291l189.227-225.493c8.107-9.685 20.096-15.275 32.725-15.275h88.192v384c0 23.552-19.115 42.667-42.667 42.667h-108.117c-12.587 0-24.576 5.589-32.683 15.232l-69.035 82.261c-16.213 19.328-40.149 30.507-65.365 30.507h-388.267c-25.216 0-49.152-11.179-65.365-30.464l-69.035-82.304c-8.107-9.643-20.096-15.232-32.683-15.232h-108.117c-23.552 0-42.667-19.115-42.667-42.667v-512c0-23.552 19.115-42.667 42.667-42.667h70.955c12.629 0 24.576-5.589 32.683-15.232l104.832-124.928c16.213-19.328 40.149-30.507 65.408-30.507h664.789c23.552 0 42.667 19.115 42.667 42.667v213.333h-88.192zM423.808 213.334c-37.931 0-73.643 16.683-98.048 45.696l-189.227 225.536c-15.189 18.048-12.8 44.971 5.248 60.117s44.971 12.8 60.117-5.291l189.227-225.536c8.107-9.643 20.011-15.189 32.683-15.189h41.173l67.755-80.725c1.451-1.707 3.285-2.944 4.821-4.608h-113.749zM679.808 213.334c-37.931 0-73.643 16.683-98.048 45.696l-189.227 225.536c-15.189 18.048-12.8 44.971 5.248 60.117s44.971 12.8 60.117-5.291l189.227-225.536c8.107-9.643 20.011-15.189 32.683-15.189h41.173l67.755-80.725c1.451-1.707 3.285-2.944 4.821-4.608h-113.749z" />
<glyph unicode="&#xe65b;" glyph-name="Engine" d="M935.808 213.334c-37.845 0-73.771 16.725-98.091 45.739l-189.227 225.536c-15.147 18.048-12.8 44.971 5.248 60.117 18.091 15.147 44.971 12.8 60.117-5.291l189.227-225.493c8.107-9.685 20.096-15.275 32.725-15.275h88.192v384c0 23.552-19.115 42.667-42.667 42.667h-108.117c-12.587 0-24.576 5.589-32.683 15.232l-69.035 82.261c-16.213 19.328-40.149 30.507-65.365 30.507h-388.267c-25.216 0-49.152-11.179-65.365-30.464l-69.035-82.304c-8.107-9.643-20.096-15.232-32.683-15.232h-108.117c-23.552 0-42.667-19.115-42.667-42.667v-512c0-23.552 19.115-42.667 42.667-42.667h70.955c12.629 0 24.576-5.589 32.683-15.232l104.832-124.928c16.213-19.328 40.149-30.507 65.408-30.507h664.789c23.552 0 42.667 19.115 42.667 42.667v213.333h-88.192zM423.808 213.334c-37.931 0-73.643 16.683-98.048 45.696l-189.227 225.536c-15.189 18.048-12.8 44.971 5.248 60.117s44.971 12.8 60.117-5.291l189.227-225.536c8.107-9.643 20.011-15.189 32.683-15.189h41.173l67.755-80.725c1.451-1.707 3.285-2.944 4.821-4.608h-113.749zM679.808 213.334c-37.931 0-73.643 16.683-98.048 45.696l-189.227 225.536c-15.189 18.048-12.8 44.971 5.248 60.117s44.971 12.8 60.117-5.291l189.227-225.536c8.107-9.643 20.011-15.189 32.683-15.189h41.173l67.755-80.725c1.451-1.707 3.285-2.944 4.821-4.608h-113.749z" />
<glyph unicode="&#xe65c;" glyph-name="full-screen" d="M572.331 547.328l60.331-60.331 220.885 220.885v-195.883h85.12v341.333h-341.333v-85.12h195.883zM391.339 366.336l60.331-60.331-220.885-220.885h195.883v-85.12h-341.333v341.333h85.12v-195.883z" />
<glyph unicode="&#xe65d;" glyph-name="geolocator" d="M576 426.667c0-35.346-28.654-64-64-64s-64 28.654-64 64c0 35.346 28.654 64 64 64s64-28.654 64-64zM512 896c-259.2 0-469.333-210.133-469.333-469.333s210.133-469.333 469.333-469.333c259.2 0 469.333 210.133 469.333 469.333s-210.133 469.333-469.333 469.333zM732.843 741.76l-90.155-361.557c-4.949-19.797-16-37.504-31.616-50.603l-285.483-239.531c-15.829-13.269-39.424 1.451-34.432 21.504l90.155 361.557c4.907 19.797 16 37.504 31.616 50.603l285.483 239.531c15.829 13.312 39.424-1.451 34.432-21.504z" />
<glyph unicode="&#xe65e;" glyph-name="globe" d="M512 896c-46.336 0-91.051-6.997-133.333-19.499l43.52-10.027c6.784-1.579 11.605-7.595 11.605-14.592v-1.579c0-8.277 6.699-14.976 14.976-14.976h79.872c10.325 0 19.925-5.333 25.387-14.080l9.856-15.829c4.437-7.125 6.827-15.36 6.827-23.808v-36.565c0-10.539-3.712-20.779-10.496-28.843l-90.88-108.075c-5.675-6.784-14.080-10.709-22.955-10.709h-53.419c-8.832 0-17.237-3.925-22.912-10.709l-11.819-14.251c-9.344-11.136-9.344-27.349 0-38.485l14.677-17.451c5.675-6.784 14.080-10.709 22.912-10.709h21.845c8.832 0 17.237-3.925 22.912-10.709l48.469-57.813c5.717-6.699 14.123-10.624 22.955-10.624h110.933c16.512 0 32.811-3.925 47.573-11.435l60.8-30.976c4.139-2.133 6.784-6.4 6.741-11.051 0-4.651 2.603-8.96 6.741-11.051l42.368-21.589c15.659-7.979 21.077-27.648 11.776-42.539l-61.397-98.304c-6.485-10.368-15.659-18.773-26.539-24.32l-50.389-25.685c-12.544-6.4-23.637-15.232-32.683-25.984l-78.805-93.909c-4.011-4.779-9.941-7.552-16.171-7.552-14.379 0-24.576 13.995-20.139 27.691l43.947 135.211c4.565 13.995-1.749 29.227-14.891 35.925-8.661 4.437-16 11.093-21.12 19.371l-33.835 54.144c-6.869 11.008-5.888 25.173 2.475 35.115l7.979 9.472c9.344 11.136 9.344 27.349 0 38.485l-36.608 43.605c-9.045 10.795-20.139 19.627-32.683 25.984l-111.531 56.832c-12.16 6.187-22.357 15.531-29.525 27.051l-51.755 82.816c-16.427 26.24-20.352 58.453-10.795 87.893l34.432 105.984c1.365 4.139 0.811 8.747-1.536 12.501l-0.085 0.171c-129.067-83.627-214.613-228.651-214.613-393.856 0-259.2 210.133-469.333 469.333-469.333s469.333 210.133 469.333 469.333-210.133 469.333-469.333 469.333z" />
<glyph unicode="&#xe65f;" glyph-name="google-plus" d="M339.371 469.376v-100.821h166.741c-6.741-43.264-50.389-126.848-166.741-126.848-100.395 0-182.272 83.157-182.272 185.643s81.92 185.643 182.272 185.643c57.131 0 95.36-24.363 117.205-45.355l79.787 76.885c-51.243 47.872-117.632 76.843-196.992 76.843-162.56 0-294.016-131.456-294.016-294.016s131.456-294.016 294.016-294.016c169.685 0 282.24 119.296 282.24 287.317 0 19.328-2.091 34.005-4.608 48.725h-277.632zM969.387 469.376h-84.011v83.968h-84.011v-83.968h-83.968v-84.011h83.968v-84.011h84.011v84.011h84.011z" />
<glyph unicode="&#xe660;" glyph-name="horsepower" d="M532.139 893.654c-280.149 11.221-510.805-212.608-510.805-490.24 0-187.136 104.747-349.781 258.816-432.512 17.621-9.472 37.632-13.568 57.6-13.568h348.331c20.053 0 40.192 4.096 57.856 13.611 156.587 84.181 262.229 250.88 258.603 441.899-4.608 246.485-224.085 470.955-470.4 480.811zM266.795 108.288c-7.979-9.259-21.973-9.856-30.891-1.536-79.488 73.984-129.237 179.499-129.237 296.661 0 95.616 33.323 183.339 88.704 252.672 3.371-9.003 7.979-17.536 14.336-25.131l10.709-12.8c-40.107-54.357-65.493-120.064-70.101-191.488h84.437c11.733 0 21.248-9.515 21.248-21.291v-0.085c0-11.776-9.515-21.291-21.291-21.291h-84.267c4.736-89.088 41.387-169.813 99.243-230.485l43.648 51.029c7.637 8.917 21.077 9.984 29.995 2.347v0c8.96-7.637 9.984-21.12 2.304-30.080l-58.837-68.523zM414.123 486.827l-155.392 185.216c-7.552 9.003-6.4 22.485 2.645 30.037 9.003 7.552 22.485 6.4 30.037-2.645l155.051-184.789c-12.331-7.381-23.168-16.811-32.341-27.819zM512 341.334c-35.371 0-64 28.672-64 64s28.629 64 64 64c35.328 0 64-28.672 64-64s-28.672-64-64-64zM757.205 108.288l-58.88 68.523c-7.68 8.917-6.656 22.4 2.304 30.080h0.043c8.917 7.637 22.357 6.571 29.995-2.347l43.648-51.029c57.856 60.672 94.507 141.397 99.243 230.485h-84.267c-11.733 0-21.291 9.515-21.291 21.291v0.085c0 11.776 9.557 21.291 21.291 21.291h84.181c-5.973 93.483-47.275 177.323-110.976 238.336l-44.16-51.669c-7.637-8.917-21.077-9.984-29.995-2.347l-0.043 0.043c-8.96 7.637-9.984 21.077-2.347 30.037l44.032 51.541c-60.8 45.867-136.149 73.472-217.984 73.472-57.813 0-112.341-13.952-160.896-38.144l-10.667 12.715c-6.443 7.68-14.293 13.611-22.741 18.517 59.264 32.427 127.488 50.56 200.021 49.536 218.283-3.029 396.544-181.248 399.573-399.531 1.664-119.467-48.427-227.2-129.195-302.379-8.917-8.363-22.955-7.765-30.891 1.493z" />
<glyph unicode="&#xe661;" glyph-name="linkedin" d="M912.043 896h-800.085c-38.272 0-69.291-31.019-69.291-69.291v-800.043c0-38.315 31.019-69.333 69.291-69.333h800.085c38.272 0 69.291 31.019 69.291 69.291v800.085c0 38.272-31.019 69.291-69.291 69.291zM322.432 96.342h-141.099v448.299h141.099v-448.299zM251.861 606.763c-44.928 0-81.365 34.219-81.365 80.981s36.437 81.024 81.365 81.024 81.365-34.219 81.365-81.024-36.437-80.981-81.365-80.981zM842.667 96h-141.099v244.864c0 72.235-30.72 94.507-70.315 94.507-41.856 0-82.944-31.531-82.944-96.341v-243.029h-141.099v448.299h135.723v-62.123h1.792c13.653 27.605 61.312 74.709 134.144 74.709 78.763 0 163.84-46.72 163.84-183.637v-277.248z" />
<glyph unicode="&#xe662;" glyph-name="list-view" d="M896 896h-768c-46.933 0-85.333-38.4-85.333-85.333v-768c0-46.933 38.4-85.333 85.333-85.333h768c46.933 0 85.333 38.4 85.333 85.333v768c0 46.933-38.4 85.333-85.333 85.333zM298.667 128h-85.333v85.333h85.333v-85.333zM298.667 384h-85.333v85.333h85.333v-85.333zM298.667 640h-85.333v85.333h85.333v-85.333zM810.667 128h-426.667v85.333h426.667v-85.333zM810.667 384h-426.667v85.333h426.667v-85.333zM810.667 640h-426.667v85.333h426.667v-85.333z" />
<glyph unicode="&#xe663;" glyph-name="list" d="M896 896h-768c-46.933 0-85.333-38.4-85.333-85.333v-768c0-46.933 38.4-85.333 85.333-85.333h768c46.933 0 85.333 38.4 85.333 85.333v768c0 46.933-38.4 85.333-85.333 85.333zM298.667 128h-85.333v85.333h85.333v-85.333zM298.667 384h-85.333v85.333h85.333v-85.333zM298.667 640h-85.333v85.333h85.333v-85.333zM810.667 128h-426.667v85.333h426.667v-85.333zM810.667 384h-426.667v85.333h426.667v-85.333zM810.667 640h-426.667v85.333h426.667v-85.333z" />
<glyph unicode="&#xe664;" glyph-name="list-view-2" d="M896 896h-768c-46.933 0-85.333-38.4-85.333-85.333v-768c0-46.933 38.4-85.333 85.333-85.333h768c46.933 0 85.333 38.4 85.333 85.333v768c0 46.933-38.4 85.333-85.333 85.333zM298.667 128h-85.333v85.333h85.333v-85.333zM298.667 384h-85.333v85.333h85.333v-85.333zM298.667 640h-85.333v85.333h85.333v-85.333zM810.667 128h-426.667v85.333h426.667v-85.333zM810.667 384h-426.667v85.333h426.667v-85.333zM810.667 640h-426.667v85.333h426.667v-85.333z" />
<glyph unicode="&#xe665;" glyph-name="live-chat" d="M810.667 597.334v213.333c0 46.933-38.4 85.333-85.333 85.333h-640c-46.933 0-85.333-38.4-85.333-85.333v-410.709c0-19.925 24.875-28.971 37.675-13.696l105.557 125.739h582.101c46.933 0 85.333 38.4 85.333 85.333zM640 682.667h-469.333v42.667h469.333v-42.667zM896 426.667h-597.333c-46.933 0-85.333-38.4-85.333-85.333v-170.667c0-46.933 38.4-85.333 85.333-85.333h539.477l105.515-125.781c12.8-15.275 37.675-6.187 37.675 13.696v368.085c0 46.933-38.4 85.333-85.333 85.333zM426.667 213.334c-23.552 0-42.667 19.115-42.667 42.667s19.115 42.667 42.667 42.667 42.667-19.115 42.667-42.667c0-23.552-19.115-42.667-42.667-42.667zM597.333 213.334c-23.552 0-42.667 19.115-42.667 42.667s19.115 42.667 42.667 42.667 42.667-19.115 42.667-42.667c0-23.552-19.115-42.667-42.667-42.667zM768 213.334c-23.552 0-42.667 19.115-42.667 42.667s19.115 42.667 42.667 42.667 42.667-19.115 42.667-42.667c0-23.552-19.115-42.667-42.667-42.667z" />
</font>
</defs>
</svg>
